<?xml version="1.0" encoding="UTF-8"?>
<svg xmlns="http://www.w3.org/2000/svg" viewBox="0 0 900.0 650.0" width="900.0" height="650.0">
  <style>
    .bg { fill: rgb(255, 255, 255); }
    .chart-bg { fill: rgb(250, 252, 255); }
    .title { font-family: system-ui, -apple-system, sans-serif; font-size: 20px; font-weight: 700; fill: rgb(13, 71, 161); }
    .subtitle { font-family: system-ui, -apple-system, sans-serif; font-size: 13px; font-weight: 500; fill: rgb(21, 101, 192); }
    .axis-title { font-family: system-ui, -apple-system, sans-serif; font-size: 13px; font-weight: 600; fill: rgb(55, 71, 79); }
    .tick-label { font-family: system-ui, -apple-system, sans-serif; font-size: 11px; fill: rgb(55, 71, 79); }
    .curve-label { font-family: system-ui, -apple-system, sans-serif; font-size: 11px; font-weight: 600; }
    .grid-line { stroke: rgb(225, 235, 245); stroke-width: 1; stroke-dasharray: 3,3; }
    .axis-line { stroke: rgb(144, 164, 174); stroke-width: 1.5; }
    .callout-box { fill: rgba(255, 255, 255, 1.00); stroke: rgb(2, 136, 209); stroke-width: 1.5; rx: 6; ry: 6; filter: drop-shadow(0px 2px 4px rgba(0,0,0,0.1)); }
    .callout-text-bold { font-family: system-ui, -apple-system, sans-serif; font-size: 12px; font-weight: 700; fill: rgb(33, 37, 41); }
    .callout-text { font-family: system-ui, -apple-system, sans-serif; font-size: 11px; font-weight: 500; fill: rgb(33, 37, 41); }
    .badge-bg { fill: rgb(227, 242, 253); rx: 12; ry: 12; }
    .badge-text { font-family: system-ui, -apple-system, sans-serif; font-size: 11px; font-weight: 700; fill: rgb(25, 118, 210); }
  </style>

  <rect class="bg" width="900.0" height="650.0"/>
  <!-- Header -->
  <g transform="translate(80.0, 35)">
    <text class="title" x="0" y="0">INTERGROWTH-21st Weight-for-Age — Boys</text>
    <text class="subtitle" x="0" y="22">Value: 4.50 kg at 10.3 mo (315d) | Z-Score: -0.10 SD | Percentile: 46.1%</text>
  </g>
  <!-- Chart Grid Area -->
  <rect class="chart-bg" x="80.0" y="100.0" width="730.0" height="454.0"/>
  <line class="grid-line" x1="139.1891891891892" y1="100.0" x2="139.1891891891892" y2="554.0"/>
  <line class="grid-line" x1="237.83783783783784" y1="100.0" x2="237.83783783783784" y2="554.0"/>
  <line class="grid-line" x1="336.4864864864865" y1="100.0" x2="336.4864864864865" y2="554.0"/>
  <line class="grid-line" x1="435.13513513513516" y1="100.0" x2="435.13513513513516" y2="554.0"/>
  <line class="grid-line" x1="533.7837837837837" y1="100.0" x2="533.7837837837837" y2="554.0"/>
  <line class="grid-line" x1="632.4324324324325" y1="100.0" x2="632.4324324324325" y2="554.0"/>
  <line class="grid-line" x1="731.081081081081" y1="100.0" x2="731.081081081081" y2="554.0"/>
  <line class="grid-line" x1="80.0" y1="554.0" x2="810.0" y2="554.0"/>
  <line class="grid-line" x1="80.0" y1="511.4485909828892" x2="810.0" y2="511.4485909828892"/>
  <line class="grid-line" x1="80.0" y1="468.8971819657784" x2="810.0" y2="468.8971819657784"/>
  <line class="grid-line" x1="80.0" y1="426.34577294866756" x2="810.0" y2="426.34577294866756"/>
  <line class="grid-line" x1="80.0" y1="383.79436393155675" x2="810.0" y2="383.79436393155675"/>
  <line class="grid-line" x1="80.0" y1="341.24295491444593" x2="810.0" y2="341.24295491444593"/>
  <line class="grid-line" x1="80.0" y1="298.6915458973351" x2="810.0" y2="298.6915458973351"/>
  <line class="grid-line" x1="80.0" y1="256.1401368802243" x2="810.0" y2="256.1401368802243"/>
  <line class="grid-line" x1="80.0" y1="213.5887278631135" x2="810.0" y2="213.5887278631135"/>
  <line class="grid-line" x1="80.0" y1="171.03731884600268" x2="810.0" y2="171.03731884600268"/>
  <line class="grid-line" x1="80.0" y1="128.48590982889192" x2="810.0" y2="128.48590982889192"/>
  <rect class="axis-line" fill="none" x="80.0" y="100.0" width="730.0" height="454.0"/>
  <line class="axis-line" x1="139.1891891891892" y1="554.0" x2="139.1891891891892" y2="560.0"/>
  <text class="tick-label" x="139.1891891891892" y="574.0" text-anchor="middle">30</text>
  <line class="axis-line" x1="237.83783783783784" y1="554.0" x2="237.83783783783784" y2="560.0"/>
  <text class="tick-label" x="237.83783783783784" y="574.0" text-anchor="middle">35</text>
  <line class="axis-line" x1="336.4864864864865" y1="554.0" x2="336.4864864864865" y2="560.0"/>
  <text class="tick-label" x="336.4864864864865" y="574.0" text-anchor="middle">40</text>
  <line class="axis-line" x1="435.13513513513516" y1="554.0" x2="435.13513513513516" y2="560.0"/>
  <text class="tick-label" x="435.13513513513516" y="574.0" text-anchor="middle">45</text>
  <line class="axis-line" x1="533.7837837837837" y1="554.0" x2="533.7837837837837" y2="560.0"/>
  <text class="tick-label" x="533.7837837837837" y="574.0" text-anchor="middle">50</text>
  <line class="axis-line" x1="632.4324324324325" y1="554.0" x2="632.4324324324325" y2="560.0"/>
  <text class="tick-label" x="632.4324324324325" y="574.0" text-anchor="middle">55</text>
  <line class="axis-line" x1="731.081081081081" y1="554.0" x2="731.081081081081" y2="560.0"/>
  <text class="tick-label" x="731.081081081081" y="574.0" text-anchor="middle">60</text>
  <text class="axis-title" x="445.0" y="598.0" text-anchor="middle">Age (months)</text>
  <line class="axis-line" x1="74.0" y1="554.0" x2="80.0" y2="554.0"/>
  <text class="tick-label" x="68.0" y="558.0" text-anchor="end">0</text>
  <line class="axis-line" x1="74.0" y1="511.4485909828892" x2="80.0" y2="511.4485909828892"/>
  <text class="tick-label" x="68.0" y="515.4485909828892" text-anchor="end">1</text>
  <line class="axis-line" x1="74.0" y1="468.8971819657784" x2="80.0" y2="468.8971819657784"/>
  <text class="tick-label" x="68.0" y="472.8971819657784" text-anchor="end">2</text>
  <line class="axis-line" x1="74.0" y1="426.34577294866756" x2="80.0" y2="426.34577294866756"/>
  <text class="tick-label" x="68.0" y="430.34577294866756" text-anchor="end">3</text>
  <line class="axis-line" x1="74.0" y1="383.79436393155675" x2="80.0" y2="383.79436393155675"/>
  <text class="tick-label" x="68.0" y="387.79436393155675" text-anchor="end">4</text>
  <line class="axis-line" x1="74.0" y1="341.24295491444593" x2="80.0" y2="341.24295491444593"/>
  <text class="tick-label" x="68.0" y="345.24295491444593" text-anchor="end">5</text>
  <line class="axis-line" x1="74.0" y1="298.6915458973351" x2="80.0" y2="298.6915458973351"/>
  <text class="tick-label" x="68.0" y="302.6915458973351" text-anchor="end">6</text>
  <line class="axis-line" x1="74.0" y1="256.1401368802243" x2="80.0" y2="256.1401368802243"/>
  <text class="tick-label" x="68.0" y="260.1401368802243" text-anchor="end">7</text>
  <line class="axis-line" x1="74.0" y1="213.5887278631135" x2="80.0" y2="213.5887278631135"/>
  <text class="tick-label" x="68.0" y="217.5887278631135" text-anchor="end">8</text>
  <line class="axis-line" x1="74.0" y1="171.03731884600268" x2="80.0" y2="171.03731884600268"/>
  <text class="tick-label" x="68.0" y="175.03731884600268" text-anchor="end">9</text>
  <line class="axis-line" x1="74.0" y1="128.48590982889192" x2="80.0" y2="128.48590982889192"/>
  <text class="tick-label" x="68.0" y="132.48590982889192" text-anchor="end">10</text>
  <text class="axis-title" x="0" y="0" transform="translate(25, 327.0) rotate(-90)" text-anchor="middle">Weight (kg)</text>
  <!-- Percentile / Z-Score Curves -->
  <path d="M 80.0 534.7 L 99.7 529.6 L 119.5 524.0 L 139.2 518.0 L 158.9 511.3 L 178.6 504.4 L 198.4 497.2 L 218.1 489.5 L 237.8 481.9 L 257.6 473.9 L 277.3 466.0 L 297.0 458.0 L 316.8 449.8 L 336.5 441.9 L 356.2 433.8 L 375.9 425.9 L 395.7 418.2 L 415.4 410.5 L 435.1 403.0 L 454.9 395.7 L 474.6 388.4 L 494.3 381.5 L 514.1 374.7 L 533.8 368.0 L 553.5 361.6 L 573.2 355.2 L 593.0 349.1 L 612.7 343.2 L 632.4 337.6 L 652.2 331.9 L 671.9 326.7 L 691.6 321.5 L 711.4 316.4 L 731.1 311.5 L 750.8 306.9 L 770.5 302.3 L 790.3 297.9 L 810.0 293.7" fill="none" stroke="rgb(211, 47, 47)" stroke-width="1.8" stroke-dasharray="6,4" stroke-linecap="round" stroke-linejoin="round"/>
  <text class="curve-label" x="818.0" y="297.71726488646635" fill="rgb(211, 47, 47)">3th</text>
  <path d="M 80.0 530.9 L 99.7 525.2 L 119.5 518.9 L 139.2 512.1 L 158.9 504.6 L 178.6 496.8 L 198.4 488.9 L 218.1 480.3 L 237.8 471.9 L 257.6 463.0 L 277.3 454.3 L 297.0 445.5 L 316.8 436.5 L 336.5 427.8 L 356.2 418.9 L 375.9 410.2 L 395.7 401.7 L 415.4 393.2 L 435.1 385.0 L 454.9 376.9 L 474.6 368.9 L 494.3 361.3 L 514.1 353.7 L 533.8 346.3 L 553.5 339.3 L 573.2 332.3 L 593.0 325.6 L 612.7 319.0 L 632.4 312.7 L 652.2 306.5 L 671.9 300.6 L 691.6 294.8 L 711.4 289.2 L 731.1 283.8 L 750.8 278.7 L 770.5 273.5 L 790.3 268.6 L 810.0 263.9" fill="none" stroke="rgb(124, 179, 66)" stroke-width="1.8"  stroke-linecap="round" stroke-linejoin="round"/>
  <text class="curve-label" x="818.0" y="267.90080625176773" fill="rgb(124, 179, 66)">15th</text>
  <path d="M 80.0 525.3 L 99.7 518.7 L 119.5 511.4 L 139.2 503.5 L 158.9 494.9 L 178.6 486.0 L 198.4 477.0 L 218.1 467.3 L 237.8 457.7 L 257.6 447.7 L 277.3 437.9 L 297.0 428.0 L 316.8 417.9 L 336.5 408.0 L 356.2 398.1 L 375.9 388.3 L 395.7 378.6 L 415.4 369.2 L 435.1 360.0 L 454.9 350.8 L 474.6 341.8 L 494.3 333.2 L 514.1 324.7 L 533.8 316.3 L 553.5 308.3 L 573.2 300.4 L 593.0 292.9 L 612.7 285.4 L 632.4 278.3 L 652.2 271.2 L 671.9 264.5 L 691.6 257.9 L 711.4 251.6 L 731.1 245.4 L 750.8 239.6 L 770.5 233.6 L 790.3 228.0 L 810.0 222.6" fill="none" stroke="rgb(46, 125, 50)" stroke-width="3.0"  stroke-linecap="round" stroke-linejoin="round"/>
  <text class="curve-label" x="818.0" y="226.61573047229774" fill="rgb(46, 125, 50)">50th</text>
  <path d="M 80.0 518.5 L 99.7 510.7 L 119.5 502.2 L 139.2 493.1 L 158.9 483.3 L 178.6 473.2 L 198.4 462.9 L 218.1 452.0 L 237.8 441.1 L 257.6 429.8 L 277.3 418.7 L 297.0 407.6 L 316.8 396.3 L 336.5 385.2 L 356.2 374.0 L 375.9 363.0 L 395.7 352.1 L 415.4 341.6 L 435.1 331.2 L 454.9 320.8 L 474.6 310.7 L 494.3 300.9 L 514.1 291.4 L 533.8 282.0 L 553.5 272.9 L 573.2 264.0 L 593.0 255.5 L 612.7 247.0 L 632.4 238.9 L 652.2 230.9 L 671.9 223.3 L 691.6 215.7 L 711.4 208.5 L 731.1 201.5 L 750.8 194.9 L 770.5 188.1 L 790.3 181.6 L 810.0 175.5" fill="none" stroke="rgb(124, 179, 66)" stroke-width="1.8"  stroke-linecap="round" stroke-linejoin="round"/>
  <text class="curve-label" x="818.0" y="179.48426053460355" fill="rgb(124, 179, 66)">85th</text>
  <path d="M 80.0 511.7 L 99.7 502.9 L 119.5 493.3 L 139.2 483.1 L 158.9 472.3 L 178.6 461.0 L 198.4 449.6 L 218.1 437.6 L 237.8 425.4 L 257.6 413.2 L 277.3 400.9 L 297.0 388.6 L 316.8 376.2 L 336.5 363.9 L 356.2 351.7 L 375.9 339.6 L 395.7 327.6 L 415.4 316.1 L 435.1 304.5 L 454.9 293.2 L 474.6 282.0 L 494.3 271.2 L 514.1 260.7 L 533.8 250.4 L 553.5 240.3 L 573.2 230.5 L 593.0 221.1 L 612.7 211.8 L 632.4 202.7 L 652.2 193.9 L 671.9 185.4 L 691.6 176.9 L 711.4 168.9 L 731.1 161.2 L 750.8 153.8 L 770.5 146.2 L 790.3 139.0 L 810.0 132.2" fill="none" stroke="rgb(211, 47, 47)" stroke-width="1.8" stroke-dasharray="6,4" stroke-linecap="round" stroke-linejoin="round"/>
  <text class="curve-label" x="818.0" y="136.1979230704057" fill="rgb(211, 47, 47)">97th</text>
  <!-- Calculated Result Markers -->
  <g transform="translate(435.13513513513516, 362.51865942300134)">
    <circle r="12.0" fill="rgba(2, 136, 209, 1.00)" opacity="0.25"/>
    <circle r="8.0" fill="rgb(255, 255, 255)" stroke="rgb(2, 136, 209)" stroke-width="2.5"/>
    <circle r="3.0" fill="rgb(2, 136, 209)"/>
  </g>
  <!-- Header Callout Card -->
  <g transform="translate(590.0, 44.0)">
    <rect class="callout-box" width="220.0" height="46.0"/>
    <text class="callout-text-bold" x="10" y="18">Result: 4.50 kg</text>
    <text class="callout-text" x="10" y="34">Age/X: 10.3 mo (315d)</text>
    <text class="callout-text-bold" x="210.0" y="18" text-anchor="end">-0.10 SD</text>
    <text class="callout-text" x="210.0" y="34" text-anchor="end">46.1th %ile</text>
  </g>
  <!-- Legend -->
  <g>
    <line x1="192.89999999999998" y1="626.0" x2="214.89999999999998" y2="626.0" stroke="rgb(46, 125, 50)" stroke-width="3.0"/>
    <text class="tick-label" x="221.89999999999998" y="630.0">50th (Median)</text>
    <line x1="332.5" y1="626.0" x2="354.5" y2="626.0" stroke="rgb(124, 179, 66)" stroke-width="2.0"/>
    <text class="tick-label" x="361.5" y="630.0">15th / 85th</text>
    <line x1="459.7" y1="626.0" x2="481.7" y2="626.0" stroke="rgb(211, 47, 47)" stroke-width="2.0" stroke-dasharray="4,3"/>
    <text class="tick-label" x="488.7" y="630.0">3rd / 97th</text>
    <circle cx="587.7" cy="626.0" r="5" fill="rgba(2, 136, 209, 1.00)" opacity="0.3"/>
    <circle cx="587.7" cy="626.0" r="3" fill="rgb(255, 255, 255)" stroke="rgb(2, 136, 209)" stroke-width="1.5"/>
    <circle cx="587.7" cy="626.0" r="1.5" fill="rgb(2, 136, 209)"/>
    <text class="tick-label" x="601.7" y="630.0">Calculated Result</text>
  </g>
</svg>
