<?xml version="1.0" encoding="UTF-8"?>
<svg xmlns="http://www.w3.org/2000/svg" viewBox="0 0 900.0 650.0" width="900.0" height="650.0">
  <style>
    .bg { fill: rgb(255, 255, 255); }
    .chart-bg { fill: rgb(250, 252, 255); }
    .title { font-family: system-ui, -apple-system, sans-serif; font-size: 20px; font-weight: 700; fill: rgb(13, 71, 161); }
    .subtitle { font-family: system-ui, -apple-system, sans-serif; font-size: 13px; font-weight: 500; fill: rgb(21, 101, 192); }
    .axis-title { font-family: system-ui, -apple-system, sans-serif; font-size: 13px; font-weight: 600; fill: rgb(55, 71, 79); }
    .tick-label { font-family: system-ui, -apple-system, sans-serif; font-size: 11px; fill: rgb(55, 71, 79); }
    .curve-label { font-family: system-ui, -apple-system, sans-serif; font-size: 11px; font-weight: 600; }
    .grid-line { stroke: rgb(225, 235, 245); stroke-width: 1; stroke-dasharray: 3,3; }
    .axis-line { stroke: rgb(144, 164, 174); stroke-width: 1.5; }
    .callout-box { fill: rgba(255, 255, 255, 1.00); stroke: rgb(2, 136, 209); stroke-width: 1.5; rx: 6; ry: 6; filter: drop-shadow(0px 2px 4px rgba(0,0,0,0.1)); }
    .callout-text-bold { font-family: system-ui, -apple-system, sans-serif; font-size: 12px; font-weight: 700; fill: rgb(33, 37, 41); }
    .callout-text { font-family: system-ui, -apple-system, sans-serif; font-size: 11px; font-weight: 500; fill: rgb(33, 37, 41); }
    .badge-bg { fill: rgb(227, 242, 253); rx: 12; ry: 12; }
    .badge-text { font-family: system-ui, -apple-system, sans-serif; font-size: 11px; font-weight: 700; fill: rgb(25, 118, 210); }
  </style>

  <rect class="bg" width="900.0" height="650.0"/>
  <!-- Header -->
  <g transform="translate(80.0, 35)">
    <text class="title" x="0" y="0">INTERGROWTH-21st Length-for-Age — Boys</text>
    <text class="subtitle" x="0" y="22">Value: 55.0 cm at 6.6 mo (200d) | Z-Score: +1.74 SD | Percentile: 96.0%</text>
  </g>
  <!-- Chart Grid Area -->
  <rect class="chart-bg" x="80.0" y="100.0" width="730.0" height="454.0"/>
  <line class="grid-line" x1="108.07692307692308" y1="100.0" x2="108.07692307692308" y2="554.0"/>
  <line class="grid-line" x1="248.46153846153848" y1="100.0" x2="248.46153846153848" y2="554.0"/>
  <line class="grid-line" x1="388.84615384615387" y1="100.0" x2="388.84615384615387" y2="554.0"/>
  <line class="grid-line" x1="529.2307692307693" y1="100.0" x2="529.2307692307693" y2="554.0"/>
  <line class="grid-line" x1="669.6153846153846" y1="100.0" x2="669.6153846153846" y2="554.0"/>
  <line class="grid-line" x1="810.0" y1="100.0" x2="810.0" y2="554.0"/>
  <line class="grid-line" x1="80.0" y1="515.2695710404022" x2="810.0" y2="515.2695710404022"/>
  <line class="grid-line" x1="80.0" y1="461.8077207165966" x2="810.0" y2="461.8077207165966"/>
  <line class="grid-line" x1="80.0" y1="408.34587039279086" x2="810.0" y2="408.34587039279086"/>
  <line class="grid-line" x1="80.0" y1="354.88402006898525" x2="810.0" y2="354.88402006898525"/>
  <line class="grid-line" x1="80.0" y1="301.42216974517964" x2="810.0" y2="301.42216974517964"/>
  <line class="grid-line" x1="80.0" y1="247.96031942137398" x2="810.0" y2="247.96031942137398"/>
  <line class="grid-line" x1="80.0" y1="194.49846909756832" x2="810.0" y2="194.49846909756832"/>
  <line class="grid-line" x1="80.0" y1="141.03661877376265" x2="810.0" y2="141.03661877376265"/>
  <rect class="axis-line" fill="none" x="80.0" y="100.0" width="730.0" height="454.0"/>
  <line class="axis-line" x1="108.07692307692308" y1="554.0" x2="108.07692307692308" y2="560.0"/>
  <text class="tick-label" x="108.07692307692308" y="574.0" text-anchor="middle">15</text>
  <line class="axis-line" x1="248.46153846153848" y1="554.0" x2="248.46153846153848" y2="560.0"/>
  <text class="tick-label" x="248.46153846153848" y="574.0" text-anchor="middle">20</text>
  <line class="axis-line" x1="388.84615384615387" y1="554.0" x2="388.84615384615387" y2="560.0"/>
  <text class="tick-label" x="388.84615384615387" y="574.0" text-anchor="middle">25</text>
  <line class="axis-line" x1="529.2307692307693" y1="554.0" x2="529.2307692307693" y2="560.0"/>
  <text class="tick-label" x="529.2307692307693" y="574.0" text-anchor="middle">30</text>
  <line class="axis-line" x1="669.6153846153846" y1="554.0" x2="669.6153846153846" y2="560.0"/>
  <text class="tick-label" x="669.6153846153846" y="574.0" text-anchor="middle">35</text>
  <line class="axis-line" x1="810.0" y1="554.0" x2="810.0" y2="560.0"/>
  <text class="tick-label" x="810.0" y="574.0" text-anchor="middle">40</text>
  <text class="axis-title" x="445.0" y="598.0" text-anchor="middle">Age (months)</text>
  <line class="axis-line" x1="74.0" y1="515.2695710404022" x2="80.0" y2="515.2695710404022"/>
  <text class="tick-label" x="68.0" y="519.2695710404022" text-anchor="end">10</text>
  <line class="axis-line" x1="74.0" y1="461.8077207165966" x2="80.0" y2="461.8077207165966"/>
  <text class="tick-label" x="68.0" y="465.8077207165966" text-anchor="end">20</text>
  <line class="axis-line" x1="74.0" y1="408.34587039279086" x2="80.0" y2="408.34587039279086"/>
  <text class="tick-label" x="68.0" y="412.34587039279086" text-anchor="end">30</text>
  <line class="axis-line" x1="74.0" y1="354.88402006898525" x2="80.0" y2="354.88402006898525"/>
  <text class="tick-label" x="68.0" y="358.88402006898525" text-anchor="end">40</text>
  <line class="axis-line" x1="74.0" y1="301.42216974517964" x2="80.0" y2="301.42216974517964"/>
  <text class="tick-label" x="68.0" y="305.42216974517964" text-anchor="end">50</text>
  <line class="axis-line" x1="74.0" y1="247.96031942137398" x2="80.0" y2="247.96031942137398"/>
  <text class="tick-label" x="68.0" y="251.96031942137398" text-anchor="end">60</text>
  <line class="axis-line" x1="74.0" y1="194.49846909756832" x2="80.0" y2="194.49846909756832"/>
  <text class="tick-label" x="68.0" y="198.49846909756832" text-anchor="end">70</text>
  <line class="axis-line" x1="74.0" y1="141.03661877376265" x2="80.0" y2="141.03661877376265"/>
  <text class="tick-label" x="68.0" y="145.03661877376265" text-anchor="end">80</text>
  <text class="axis-title" x="0" y="0" transform="translate(25, 327.0) rotate(-90)" text-anchor="middle">Length / Height (cm)</text>
  <!-- Percentile / Z-Score Curves -->
  <path d="M 80.0 522.7 L 108.1 506.7 L 136.2 490.7 L 164.2 474.7 L 192.3 459.7 L 220.4 444.6 L 248.5 429.9 L 276.5 415.9 L 304.6 402.0 L 332.7 388.6 L 360.8 375.8 L 388.8 363.4 L 416.9 351.2 L 445.0 339.9 L 473.1 328.7 L 501.2 317.9 L 529.2 308.0 L 557.3 298.2 L 585.4 289.1 L 613.5 280.5 L 641.5 272.1 L 669.6 264.5 L 697.7 257.4 L 725.8 250.7 L 753.8 244.8 L 781.9 239.4 L 810.0 234.6" fill="none" stroke="rgb(211, 47, 47)" stroke-width="1.8" stroke-dasharray="6,4" stroke-linecap="round" stroke-linejoin="round"/>
  <text class="curve-label" x="818.0" y="238.6422648909995" fill="rgb(211, 47, 47)">-3 SD</text>
  <path d="M 80.0 514.8 L 108.1 498.2 L 136.2 481.9 L 164.2 465.9 L 192.3 450.6 L 220.4 435.2 L 248.5 420.4 L 276.5 406.1 L 304.6 392.2 L 332.7 378.4 L 360.8 365.4 L 388.8 352.7 L 416.9 340.5 L 445.0 328.7 L 473.1 317.3 L 501.2 306.3 L 529.2 295.9 L 557.3 285.9 L 585.4 276.3 L 613.5 267.2 L 641.5 258.6 L 669.6 250.5 L 697.7 242.8 L 725.8 235.6 L 753.8 229.1 L 781.9 223.0 L 810.0 217.5" fill="none" stroke="rgb(245, 124, 0)" stroke-width="1.8"  stroke-linecap="round" stroke-linejoin="round"/>
  <text class="curve-label" x="818.0" y="221.48821771535802" fill="rgb(245, 124, 0)">-2 SD</text>
  <path d="M 80.0 506.8 L 108.1 489.8 L 136.2 473.2 L 164.2 457.1 L 192.3 441.5 L 220.4 425.9 L 248.5 410.9 L 276.5 396.4 L 304.6 382.3 L 332.7 368.2 L 360.8 355.1 L 388.8 342.1 L 416.9 329.7 L 445.0 317.5 L 473.1 305.9 L 501.2 294.7 L 529.2 283.9 L 557.3 273.6 L 585.4 263.5 L 613.5 254.0 L 641.5 245.1 L 669.6 236.4 L 697.7 228.3 L 725.8 220.5 L 753.8 213.4 L 781.9 206.6 L 810.0 200.3" fill="none" stroke="rgb(124, 179, 66)" stroke-width="1.8"  stroke-linecap="round" stroke-linejoin="round"/>
  <text class="curve-label" x="818.0" y="204.30542705948073" fill="rgb(124, 179, 66)">-1 SD</text>
  <path d="M 80.0 498.7 L 108.1 481.4 L 136.2 464.5 L 164.2 448.3 L 192.3 432.4 L 220.4 416.5 L 248.5 401.5 L 276.5 386.6 L 304.6 372.4 L 332.7 358.1 L 360.8 344.7 L 388.8 331.5 L 416.9 318.9 L 445.0 306.4 L 473.1 294.5 L 501.2 283.1 L 529.2 271.9 L 557.3 261.3 L 585.4 250.8 L 613.5 240.9 L 641.5 231.6 L 669.6 222.4 L 697.7 213.7 L 725.8 205.4 L 753.8 197.6 L 781.9 190.1 L 810.0 183.1" fill="none" stroke="rgb(46, 125, 50)" stroke-width="3.0"  stroke-linecap="round" stroke-linejoin="round"/>
  <text class="curve-label" x="818.0" y="187.09514455585452" fill="rgb(46, 125, 50)">0 (Median)</text>
  <path d="M 80.0 490.6 L 108.1 473.0 L 136.2 455.9 L 164.2 439.4 L 192.3 423.3 L 220.4 407.2 L 248.5 392.0 L 276.5 376.9 L 304.6 362.4 L 332.7 348.1 L 360.8 334.4 L 388.8 321.0 L 416.9 308.1 L 445.0 295.3 L 473.1 283.2 L 501.2 271.4 L 529.2 259.9 L 557.3 249.0 L 585.4 238.1 L 613.5 227.7 L 641.5 218.1 L 669.6 208.3 L 697.7 199.2 L 725.8 190.3 L 753.8 181.8 L 781.9 173.7 L 810.0 165.9" fill="none" stroke="rgb(124, 179, 66)" stroke-width="1.8"  stroke-linecap="round" stroke-linejoin="round"/>
  <text class="curve-label" x="818.0" y="169.8585155906003" fill="rgb(124, 179, 66)">+1 SD</text>
  <path d="M 80.0 482.5 L 108.1 464.7 L 136.2 447.3 L 164.2 430.5 L 192.3 414.2 L 220.4 398.0 L 248.5 382.5 L 276.5 367.2 L 304.6 352.4 L 332.7 338.1 L 360.8 324.0 L 388.8 310.4 L 416.9 297.2 L 445.0 284.2 L 473.1 271.8 L 501.2 259.7 L 529.2 248.0 L 557.3 236.7 L 585.4 225.4 L 613.5 214.6 L 641.5 204.5 L 669.6 194.3 L 697.7 184.6 L 725.8 175.3 L 753.8 166.0 L 781.9 157.3 L 810.0 148.6" fill="none" stroke="rgb(245, 124, 0)" stroke-width="1.8"  stroke-linecap="round" stroke-linejoin="round"/>
  <text class="curve-label" x="818.0" y="152.59659235322488" fill="rgb(245, 124, 0)">+2 SD</text>
  <path d="M 80.0 474.2 L 108.1 456.4 L 136.2 438.8 L 164.2 421.6 L 192.3 405.1 L 220.4 388.7 L 248.5 373.1 L 276.5 357.5 L 304.6 342.4 L 332.7 328.2 L 360.8 313.7 L 388.8 299.9 L 416.9 286.3 L 445.0 273.2 L 473.1 260.4 L 501.2 248.0 L 529.2 236.1 L 557.3 224.4 L 585.4 212.8 L 613.5 201.6 L 641.5 190.8 L 669.6 180.2 L 697.7 170.1 L 725.8 160.2 L 753.8 150.2 L 781.9 140.9 L 810.0 131.3" fill="none" stroke="rgb(211, 47, 47)" stroke-width="1.8" stroke-dasharray="6,4" stroke-linecap="round" stroke-linejoin="round"/>
  <text class="curve-label" x="818.0" y="135.31034482758622" fill="rgb(211, 47, 47)">+3 SD</text>
  <!-- Calculated Result Markers -->
  <g transform="translate(473.07692307692304, 274.6912445832768)">
    <circle r="12.0" fill="rgba(2, 136, 209, 1.00)" opacity="0.25"/>
    <circle r="8.0" fill="rgb(255, 255, 255)" stroke="rgb(2, 136, 209)" stroke-width="2.5"/>
    <circle r="3.0" fill="rgb(2, 136, 209)"/>
  </g>
  <!-- Header Callout Card -->
  <g transform="translate(590.0, 44.0)">
    <rect class="callout-box" width="220.0" height="46.0"/>
    <text class="callout-text-bold" x="10" y="18">Result: 55.0 cm</text>
    <text class="callout-text" x="10" y="34">Age/X: 6.6 mo (200d)</text>
    <text class="callout-text-bold" x="210.0" y="18" text-anchor="end">+1.74 SD</text>
    <text class="callout-text" x="210.0" y="34" text-anchor="end">96.0th %ile</text>
  </g>
  <!-- Legend -->
  <g>
    <line x1="211.5" y1="626.0" x2="233.5" y2="626.0" stroke="rgb(46, 125, 50)" stroke-width="3.0"/>
    <text class="tick-label" x="240.5" y="630.0">0 SD (Median)</text>
    <line x1="351.1" y1="626.0" x2="373.1" y2="626.0" stroke="rgb(124, 179, 66)" stroke-width="2.0"/>
    <text class="tick-label" x="380.1" y="630.0">±1 SD</text>
    <line x1="441.1" y1="626.0" x2="463.1" y2="626.0" stroke="rgb(211, 47, 47)" stroke-width="2.0" stroke-dasharray="4,3"/>
    <text class="tick-label" x="470.1" y="630.0">±2 / ±3 SD</text>
    <circle cx="569.1" cy="626.0" r="5" fill="rgba(2, 136, 209, 1.00)" opacity="0.3"/>
    <circle cx="569.1" cy="626.0" r="3" fill="rgb(255, 255, 255)" stroke="rgb(2, 136, 209)" stroke-width="1.5"/>
    <circle cx="569.1" cy="626.0" r="1.5" fill="rgb(2, 136, 209)"/>
    <text class="tick-label" x="583.1" y="630.0">Calculated Result</text>
  </g>
</svg>
