<?xml version="1.0" encoding="UTF-8"?>
<svg xmlns="http://www.w3.org/2000/svg" viewBox="0 0 900.0 650.0" width="900.0" height="650.0">
  <style>
    .bg { fill: rgb(255, 255, 255); }
    .chart-bg { fill: rgb(250, 252, 255); }
    .title { font-family: system-ui, -apple-system, sans-serif; font-size: 20px; font-weight: 700; fill: rgb(13, 71, 161); }
    .subtitle { font-family: system-ui, -apple-system, sans-serif; font-size: 13px; font-weight: 500; fill: rgb(21, 101, 192); }
    .axis-title { font-family: system-ui, -apple-system, sans-serif; font-size: 13px; font-weight: 600; fill: rgb(55, 71, 79); }
    .tick-label { font-family: system-ui, -apple-system, sans-serif; font-size: 11px; fill: rgb(55, 71, 79); }
    .curve-label { font-family: system-ui, -apple-system, sans-serif; font-size: 11px; font-weight: 600; }
    .grid-line { stroke: rgb(225, 235, 245); stroke-width: 1; stroke-dasharray: 3,3; }
    .axis-line { stroke: rgb(144, 164, 174); stroke-width: 1.5; }
    .callout-box { fill: rgba(255, 255, 255, 1.00); stroke: rgb(2, 136, 209); stroke-width: 1.5; rx: 6; ry: 6; filter: drop-shadow(0px 2px 4px rgba(0,0,0,0.1)); }
    .callout-text-bold { font-family: system-ui, -apple-system, sans-serif; font-size: 12px; font-weight: 700; fill: rgb(33, 37, 41); }
    .callout-text { font-family: system-ui, -apple-system, sans-serif; font-size: 11px; font-weight: 500; fill: rgb(33, 37, 41); }
    .badge-bg { fill: rgb(227, 242, 253); rx: 12; ry: 12; }
    .badge-text { font-family: system-ui, -apple-system, sans-serif; font-size: 11px; font-weight: 700; fill: rgb(25, 118, 210); }
  </style>

  <rect class="bg" width="900.0" height="650.0"/>
  <!-- Header -->
  <g transform="translate(80.0, 35)">
    <text class="title" x="0" y="0">INTERGROWTH-21st Height-for-Age — Boys</text>
    <text class="subtitle" x="0" y="22">Value: 26.0 cm at 6.6 mo (200d) | Z-Score: -1.00 SD | Percentile: 15.9%</text>
  </g>
  <!-- Chart Grid Area -->
  <rect class="chart-bg" x="80.0" y="100.0" width="730.0" height="454.0"/>
  <line class="grid-line" x1="196.8" y1="100.0" x2="196.8" y2="554.0"/>
  <line class="grid-line" x1="342.8" y1="100.0" x2="342.8" y2="554.0"/>
  <line class="grid-line" x1="488.8" y1="100.0" x2="488.8" y2="554.0"/>
  <line class="grid-line" x1="634.8" y1="100.0" x2="634.8" y2="554.0"/>
  <line class="grid-line" x1="780.8" y1="100.0" x2="780.8" y2="554.0"/>
  <line class="grid-line" x1="80.0" y1="541.5457539656435" x2="810.0" y2="541.5457539656435"/>
  <line class="grid-line" x1="80.0" y1="482.62044523680095" x2="810.0" y2="482.62044523680095"/>
  <line class="grid-line" x1="80.0" y1="423.6951365079584" x2="810.0" y2="423.6951365079584"/>
  <line class="grid-line" x1="80.0" y1="364.7698277791159" x2="810.0" y2="364.7698277791159"/>
  <line class="grid-line" x1="80.0" y1="305.84451905027333" x2="810.0" y2="305.84451905027333"/>
  <line class="grid-line" x1="80.0" y1="246.9192103214308" x2="810.0" y2="246.9192103214308"/>
  <line class="grid-line" x1="80.0" y1="187.99390159258826" x2="810.0" y2="187.99390159258826"/>
  <line class="grid-line" x1="80.0" y1="129.06859286374578" x2="810.0" y2="129.06859286374578"/>
  <rect class="axis-line" fill="none" x="80.0" y="100.0" width="730.0" height="454.0"/>
  <line class="axis-line" x1="196.8" y1="554.0" x2="196.8" y2="560.0"/>
  <text class="tick-label" x="196.8" y="574.0" text-anchor="middle">20</text>
  <line class="axis-line" x1="342.8" y1="554.0" x2="342.8" y2="560.0"/>
  <text class="tick-label" x="342.8" y="574.0" text-anchor="middle">25</text>
  <line class="axis-line" x1="488.8" y1="554.0" x2="488.8" y2="560.0"/>
  <text class="tick-label" x="488.8" y="574.0" text-anchor="middle">30</text>
  <line class="axis-line" x1="634.8" y1="554.0" x2="634.8" y2="560.0"/>
  <text class="tick-label" x="634.8" y="574.0" text-anchor="middle">35</text>
  <line class="axis-line" x1="780.8" y1="554.0" x2="780.8" y2="560.0"/>
  <text class="tick-label" x="780.8" y="574.0" text-anchor="middle">40</text>
  <text class="axis-title" x="445.0" y="598.0" text-anchor="middle">Age (months)</text>
  <line class="axis-line" x1="74.0" y1="541.5457539656435" x2="80.0" y2="541.5457539656435"/>
  <text class="tick-label" x="68.0" y="545.5457539656435" text-anchor="end">10</text>
  <line class="axis-line" x1="74.0" y1="482.62044523680095" x2="80.0" y2="482.62044523680095"/>
  <text class="tick-label" x="68.0" y="486.62044523680095" text-anchor="end">15</text>
  <line class="axis-line" x1="74.0" y1="423.6951365079584" x2="80.0" y2="423.6951365079584"/>
  <text class="tick-label" x="68.0" y="427.6951365079584" text-anchor="end">20</text>
  <line class="axis-line" x1="74.0" y1="364.7698277791159" x2="80.0" y2="364.7698277791159"/>
  <text class="tick-label" x="68.0" y="368.7698277791159" text-anchor="end">25</text>
  <line class="axis-line" x1="74.0" y1="305.84451905027333" x2="80.0" y2="305.84451905027333"/>
  <text class="tick-label" x="68.0" y="309.84451905027333" text-anchor="end">30</text>
  <line class="axis-line" x1="74.0" y1="246.9192103214308" x2="80.0" y2="246.9192103214308"/>
  <text class="tick-label" x="68.0" y="250.9192103214308" text-anchor="end">35</text>
  <line class="axis-line" x1="74.0" y1="187.99390159258826" x2="80.0" y2="187.99390159258826"/>
  <text class="tick-label" x="68.0" y="191.99390159258826" text-anchor="end">40</text>
  <line class="axis-line" x1="74.0" y1="129.06859286374578" x2="80.0" y2="129.06859286374578"/>
  <text class="tick-label" x="68.0" y="133.06859286374578" text-anchor="end">45</text>
  <text class="axis-title" x="0" y="0" transform="translate(25, 327.0) rotate(-90)" text-anchor="middle">Length / Height (cm)</text>
  <!-- Percentile / Z-Score Curves -->
  <path d="M 80.0 522.7 L 109.2 512.1 L 138.4 501.4 L 167.6 490.8 L 196.8 480.5 L 226.0 469.5 L 255.2 458.2 L 284.4 447.2 L 313.6 436.9 L 342.8 425.7 L 372.0 415.4 L 401.2 404.8 L 430.4 394.0 L 459.6 383.3 L 488.8 372.9 L 518.0 363.6 L 547.2 352.9 L 576.4 343.8 L 605.6 334.0 L 634.8 324.5 L 664.0 316.6 L 693.2 308.1 L 722.4 299.9 L 751.6 291.7 L 780.8 283.7 L 810.0 276.3" fill="none" stroke="rgb(211, 47, 47)" stroke-width="1.8" stroke-dasharray="6,4" stroke-linecap="round" stroke-linejoin="round"/>
  <text class="curve-label" x="818.0" y="280.27311820328293" fill="rgb(211, 47, 47)">-3 SD</text>
  <path d="M 80.0 506.2 L 109.2 495.2 L 138.4 484.1 L 167.6 473.2 L 196.8 462.4 L 226.0 451.1 L 255.2 439.7 L 284.4 428.4 L 313.6 417.6 L 342.8 406.5 L 372.0 395.5 L 401.2 384.8 L 430.4 373.4 L 459.6 362.9 L 488.8 352.1 L 518.0 342.4 L 547.2 331.9 L 576.4 321.9 L 605.6 312.1 L 634.8 302.5 L 664.0 293.6 L 693.2 285.0 L 722.4 276.4 L 751.6 268.1 L 780.8 259.7 L 810.0 252.0" fill="none" stroke="rgb(245, 124, 0)" stroke-width="1.8"  stroke-linecap="round" stroke-linejoin="round"/>
  <text class="curve-label" x="818.0" y="255.96650467432096" fill="rgb(245, 124, 0)">-2 SD</text>
  <path d="M 80.0 489.7 L 109.2 478.4 L 138.4 467.0 L 167.6 455.7 L 196.8 444.4 L 226.0 432.9 L 255.2 421.3 L 284.4 409.7 L 313.6 398.4 L 342.8 387.2 L 372.0 375.7 L 401.2 364.8 L 430.4 353.1 L 459.6 342.5 L 488.8 331.4 L 518.0 321.2 L 547.2 310.6 L 576.4 300.1 L 605.6 290.1 L 634.8 280.4 L 664.0 270.8 L 693.2 261.9 L 722.4 253.0 L 751.6 244.6 L 780.8 235.8 L 810.0 227.7" fill="none" stroke="rgb(124, 179, 66)" stroke-width="1.8"  stroke-linecap="round" stroke-linejoin="round"/>
  <text class="curve-label" x="818.0" y="231.72308152172099" fill="rgb(124, 179, 66)">-1 SD</text>
  <path d="M 80.0 473.2 L 109.2 461.6 L 138.4 449.8 L 167.6 438.2 L 196.8 426.5 L 226.0 414.7 L 255.2 402.9 L 284.4 391.1 L 313.6 379.3 L 342.8 367.9 L 372.0 356.0 L 401.2 344.7 L 430.4 332.8 L 459.6 321.9 L 488.8 310.6 L 518.0 300.0 L 547.2 289.3 L 576.4 278.4 L 605.6 268.1 L 634.8 258.3 L 664.0 248.2 L 693.2 238.9 L 722.4 229.6 L 751.6 221.0 L 780.8 212.0 L 810.0 203.5" fill="none" stroke="rgb(46, 125, 50)" stroke-width="3.0"  stroke-linecap="round" stroke-linejoin="round"/>
  <text class="curve-label" x="818.0" y="207.53899496726888" fill="rgb(46, 125, 50)">0 (Median)</text>
  <path d="M 80.0 456.7 L 109.2 444.7 L 138.4 432.8 L 167.6 420.8 L 196.8 408.6 L 226.0 396.5 L 255.2 384.6 L 284.4 372.5 L 313.6 360.2 L 342.8 348.5 L 372.0 336.4 L 401.2 324.7 L 430.4 312.8 L 459.6 301.4 L 488.8 289.8 L 518.0 278.7 L 547.2 267.8 L 576.4 256.8 L 605.6 246.2 L 634.8 236.1 L 664.0 225.6 L 693.2 215.9 L 722.4 206.3 L 751.6 197.4 L 780.8 188.2 L 810.0 179.4" fill="none" stroke="rgb(124, 179, 66)" stroke-width="1.8"  stroke-linecap="round" stroke-linejoin="round"/>
  <text class="curve-label" x="818.0" y="183.41082659864583" fill="rgb(124, 179, 66)">+1 SD</text>
  <path d="M 80.0 440.2 L 109.2 427.9 L 138.4 415.8 L 167.6 403.5 L 196.8 390.7 L 226.0 378.4 L 255.2 366.3 L 284.4 354.0 L 313.6 341.2 L 342.8 329.1 L 372.0 316.9 L 401.2 304.7 L 430.4 292.8 L 459.6 280.8 L 488.8 269.0 L 518.0 257.5 L 547.2 246.2 L 576.4 235.2 L 605.6 224.2 L 634.8 213.9 L 664.0 203.2 L 693.2 193.0 L 722.4 183.1 L 751.6 173.9 L 780.8 164.4 L 810.0 155.3" fill="none" stroke="rgb(245, 124, 0)" stroke-width="1.8"  stroke-linecap="round" stroke-linejoin="round"/>
  <text class="curve-label" x="818.0" y="159.3355239079268" fill="rgb(245, 124, 0)">+2 SD</text>
  <path d="M 80.0 423.7 L 109.2 411.1 L 138.4 398.8 L 167.6 386.2 L 196.8 372.9 L 226.0 360.4 L 255.2 348.1 L 284.4 335.5 L 313.6 322.2 L 342.8 309.6 L 372.0 297.4 L 401.2 284.6 L 430.4 273.0 L 459.6 260.1 L 488.8 248.2 L 518.0 236.3 L 547.2 224.4 L 576.4 213.7 L 605.6 202.2 L 634.8 191.7 L 664.0 181.0 L 693.2 170.2 L 722.4 159.9 L 751.6 150.3 L 780.8 140.7 L 810.0 131.3" fill="none" stroke="rgb(211, 47, 47)" stroke-width="1.8" stroke-dasharray="6,4" stroke-linecap="round" stroke-linejoin="round"/>
  <text class="curve-label" x="818.0" y="135.31034482758616" fill="rgb(211, 47, 47)">+3 SD</text>
  <!-- Calculated Result Markers -->
  <g transform="translate(430.4, 352.98476603334734)">
    <circle r="12.0" fill="rgba(2, 136, 209, 1.00)" opacity="0.25"/>
    <circle r="8.0" fill="rgb(255, 255, 255)" stroke="rgb(2, 136, 209)" stroke-width="2.5"/>
    <circle r="3.0" fill="rgb(2, 136, 209)"/>
  </g>
  <!-- Header Callout Card -->
  <g transform="translate(590.0, 44.0)">
    <rect class="callout-box" width="220.0" height="46.0"/>
    <text class="callout-text-bold" x="10" y="18">Result: 26.0 cm</text>
    <text class="callout-text" x="10" y="34">Age/X: 6.6 mo (200d)</text>
    <text class="callout-text-bold" x="210.0" y="18" text-anchor="end">-1.00 SD</text>
    <text class="callout-text" x="210.0" y="34" text-anchor="end">15.9th %ile</text>
  </g>
  <!-- Legend -->
  <g>
    <line x1="211.5" y1="626.0" x2="233.5" y2="626.0" stroke="rgb(46, 125, 50)" stroke-width="3.0"/>
    <text class="tick-label" x="240.5" y="630.0">0 SD (Median)</text>
    <line x1="351.1" y1="626.0" x2="373.1" y2="626.0" stroke="rgb(124, 179, 66)" stroke-width="2.0"/>
    <text class="tick-label" x="380.1" y="630.0">±1 SD</text>
    <line x1="441.1" y1="626.0" x2="463.1" y2="626.0" stroke="rgb(211, 47, 47)" stroke-width="2.0" stroke-dasharray="4,3"/>
    <text class="tick-label" x="470.1" y="630.0">±2 / ±3 SD</text>
    <circle cx="569.1" cy="626.0" r="5" fill="rgba(2, 136, 209, 1.00)" opacity="0.3"/>
    <circle cx="569.1" cy="626.0" r="3" fill="rgb(255, 255, 255)" stroke="rgb(2, 136, 209)" stroke-width="1.5"/>
    <circle cx="569.1" cy="626.0" r="1.5" fill="rgb(2, 136, 209)"/>
    <text class="tick-label" x="583.1" y="630.0">Calculated Result</text>
  </g>
</svg>
