<?xml version="1.0" encoding="UTF-8"?>
<svg xmlns="http://www.w3.org/2000/svg" viewBox="0 0 900.0 650.0" width="900.0" height="650.0">
  <style>
    .bg { fill: rgb(255, 255, 255); }
    .chart-bg { fill: rgb(250, 252, 255); }
    .title { font-family: system-ui, -apple-system, sans-serif; font-size: 20px; font-weight: 700; fill: rgb(13, 71, 161); }
    .subtitle { font-family: system-ui, -apple-system, sans-serif; font-size: 13px; font-weight: 500; fill: rgb(21, 101, 192); }
    .axis-title { font-family: system-ui, -apple-system, sans-serif; font-size: 13px; font-weight: 600; fill: rgb(55, 71, 79); }
    .tick-label { font-family: system-ui, -apple-system, sans-serif; font-size: 11px; fill: rgb(55, 71, 79); }
    .curve-label { font-family: system-ui, -apple-system, sans-serif; font-size: 11px; font-weight: 600; }
    .grid-line { stroke: rgb(225, 235, 245); stroke-width: 1; stroke-dasharray: 3,3; }
    .axis-line { stroke: rgb(144, 164, 174); stroke-width: 1.5; }
    .callout-box { fill: rgba(255, 255, 255, 1.00); stroke: rgb(2, 136, 209); stroke-width: 1.5; rx: 6; ry: 6; filter: drop-shadow(0px 2px 4px rgba(0,0,0,0.1)); }
    .callout-text-bold { font-family: system-ui, -apple-system, sans-serif; font-size: 12px; font-weight: 700; fill: rgb(33, 37, 41); }
    .callout-text { font-family: system-ui, -apple-system, sans-serif; font-size: 11px; font-weight: 500; fill: rgb(33, 37, 41); }
    .badge-bg { fill: rgb(227, 242, 253); rx: 12; ry: 12; }
    .badge-text { font-family: system-ui, -apple-system, sans-serif; font-size: 11px; font-weight: 700; fill: rgb(25, 118, 210); }
  </style>

  <rect class="bg" width="900.0" height="650.0"/>
  <!-- Header -->
  <g transform="translate(80.0, 35)">
    <text class="title" x="0" y="0">Fenton Head Circumference-for-Age — Boys</text>
    <text class="subtitle" x="0" y="22">Value: 31.0 cm at 238.0 wks PMA | Z-Score: -0.33 SD | Percentile: 36.9%</text>
  </g>
  <!-- Chart Grid Area -->
  <rect class="chart-bg" x="80.0" y="100.0" width="730.0" height="454.0"/>
  <line class="grid-line" x1="118.02083333333334" y1="100.0" x2="118.02083333333334" y2="554.0"/>
  <line class="grid-line" x1="224.47916666666666" y1="100.0" x2="224.47916666666666" y2="554.0"/>
  <line class="grid-line" x1="330.9375" y1="100.0" x2="330.9375" y2="554.0"/>
  <line class="grid-line" x1="437.3958333333333" y1="100.0" x2="437.3958333333333" y2="554.0"/>
  <line class="grid-line" x1="543.8541666666666" y1="100.0" x2="543.8541666666666" y2="554.0"/>
  <line class="grid-line" x1="650.3125" y1="100.0" x2="650.3125" y2="554.0"/>
  <line class="grid-line" x1="756.7708333333334" y1="100.0" x2="756.7708333333334" y2="554.0"/>
  <line class="grid-line" x1="80.0" y1="482.58021521394033" x2="810.0" y2="482.58021521394033"/>
  <line class="grid-line" x1="80.0" y1="401.2693739353447" x2="810.0" y2="401.2693739353447"/>
  <line class="grid-line" x1="80.0" y1="319.95853265674896" x2="810.0" y2="319.95853265674896"/>
  <line class="grid-line" x1="80.0" y1="238.6476913781533" x2="810.0" y2="238.6476913781533"/>
  <line class="grid-line" x1="80.0" y1="157.33685009955764" x2="810.0" y2="157.33685009955764"/>
  <rect class="axis-line" fill="none" x="80.0" y="100.0" width="730.0" height="454.0"/>
  <line class="axis-line" x1="118.02083333333334" y1="554.0" x2="118.02083333333334" y2="560.0"/>
  <text class="tick-label" x="118.02083333333334" y="574.0" text-anchor="middle">24w</text>
  <line class="axis-line" x1="224.47916666666666" y1="554.0" x2="224.47916666666666" y2="560.0"/>
  <text class="tick-label" x="224.47916666666666" y="574.0" text-anchor="middle">28w</text>
  <line class="axis-line" x1="330.9375" y1="554.0" x2="330.9375" y2="560.0"/>
  <text class="tick-label" x="330.9375" y="574.0" text-anchor="middle">32w</text>
  <line class="axis-line" x1="437.3958333333333" y1="554.0" x2="437.3958333333333" y2="560.0"/>
  <text class="tick-label" x="437.3958333333333" y="574.0" text-anchor="middle">36w</text>
  <line class="axis-line" x1="543.8541666666666" y1="554.0" x2="543.8541666666666" y2="560.0"/>
  <text class="tick-label" x="543.8541666666666" y="574.0" text-anchor="middle">40w</text>
  <line class="axis-line" x1="650.3125" y1="554.0" x2="650.3125" y2="560.0"/>
  <text class="tick-label" x="650.3125" y="574.0" text-anchor="middle">44w</text>
  <line class="axis-line" x1="756.7708333333334" y1="554.0" x2="756.7708333333334" y2="560.0"/>
  <text class="tick-label" x="756.7708333333334" y="574.0" text-anchor="middle">48w</text>
  <text class="axis-title" x="445.0" y="598.0" text-anchor="middle">Postmenstrual Age (weeks)</text>
  <line class="axis-line" x1="74.0" y1="482.58021521394033" x2="80.0" y2="482.58021521394033"/>
  <text class="tick-label" x="68.0" y="486.58021521394033" text-anchor="end">20</text>
  <line class="axis-line" x1="74.0" y1="401.2693739353447" x2="80.0" y2="401.2693739353447"/>
  <text class="tick-label" x="68.0" y="405.2693739353447" text-anchor="end">25</text>
  <line class="axis-line" x1="74.0" y1="319.95853265674896" x2="80.0" y2="319.95853265674896"/>
  <text class="tick-label" x="68.0" y="323.95853265674896" text-anchor="end">30</text>
  <line class="axis-line" x1="74.0" y1="238.6476913781533" x2="80.0" y2="238.6476913781533"/>
  <text class="tick-label" x="68.0" y="242.6476913781533" text-anchor="end">35</text>
  <line class="axis-line" x1="74.0" y1="157.33685009955764" x2="80.0" y2="157.33685009955764"/>
  <text class="tick-label" x="68.0" y="161.33685009955764" text-anchor="end">40</text>
  <text class="axis-title" x="0" y="0" transform="translate(25, 327.0) rotate(-90)" text-anchor="middle">Head Circumference (cm)</text>
  <!-- Percentile / Z-Score Curves -->
  <path d="M 80.0 522.7 L 83.8 520.3 L 87.6 517.8 L 91.4 515.4 L 95.2 513.0 L 99.0 510.6 L 102.8 508.1 L 106.6 505.7 L 110.4 503.3 L 114.2 500.9 L 118.0 498.5 L 121.8 496.1 L 125.6 493.7 L 129.4 491.4 L 133.2 489.1 L 137.0 486.8 L 140.8 484.5 L 144.6 482.2 L 148.4 480.0 L 152.2 477.7 L 156.0 475.5 L 159.8 473.3 L 163.6 471.0 L 167.4 468.8 L 171.3 466.6 L 175.1 464.4 L 178.9 462.1 L 182.7 459.9 L 186.5 457.6 L 190.3 455.3 L 194.1 453.0 L 197.9 450.7 L 201.7 448.4 L 205.5 446.1 L 209.3 443.8 L 213.1 441.5 L 216.9 439.2 L 220.7 436.9 L 224.5 434.6 L 228.3 432.3 L 232.1 429.9 L 235.9 427.5 L 239.7 425.1 L 243.5 422.6 L 247.3 420.1 L 251.1 417.6 L 254.9 415.2 L 258.7 412.7 L 262.5 410.4 L 266.3 408.2 L 270.1 406.0 L 273.9 403.9 L 277.7 401.9 L 281.5 400.0 L 285.3 398.0 L 289.1 396.0 L 292.9 394.0 L 296.7 392.0 L 300.5 389.9 L 304.3 387.8 L 308.1 385.7 L 311.9 383.5 L 315.7 381.3 L 319.5 379.1 L 323.3 376.9 L 327.1 374.7 L 330.9 372.4 L 334.7 370.2 L 338.5 367.9 L 342.3 365.7 L 346.1 363.4 L 349.9 361.2 L 353.8 359.0 L 357.6 356.8 L 361.4 354.6 L 365.2 352.4 L 369.0 350.2 L 372.8 347.9 L 376.6 345.7 L 380.4 343.5 L 384.2 341.3 L 388.0 339.1 L 391.8 336.9 L 395.6 334.7 L 399.4 332.7 L 403.2 330.6 L 407.0 328.6 L 410.8 326.7 L 414.6 324.8 L 418.4 322.9 L 422.2 321.1 L 426.0 319.3 L 429.8 317.6 L 433.6 315.9 L 437.4 314.2 L 441.2 312.5 L 445.0 310.9 L 448.8 309.2 L 452.6 307.6 L 456.4 306.0 L 460.2 304.4 L 464.0 302.8 L 467.8 301.3 L 471.6 299.7 L 475.4 298.2 L 479.2 296.7 L 483.0 295.2 L 486.8 293.7 L 490.6 292.2 L 494.4 290.7 L 498.2 289.2 L 502.0 287.8 L 505.8 286.3 L 509.6 284.9 L 513.4 283.5 L 517.2 282.1 L 521.0 280.7 L 524.8 279.3 L 528.6 277.9 L 532.4 276.6 L 536.3 275.2 L 540.1 273.8 L 543.9 272.5 L 547.7 271.2 L 551.5 269.9 L 555.3 268.6 L 559.1 267.3 L 562.9 266.0 L 566.7 264.7 L 570.5 263.4 L 574.3 262.1 L 578.1 260.9 L 581.9 259.6 L 585.7 258.4 L 589.5 257.2 L 593.3 255.9 L 597.1 254.7 L 600.9 253.5 L 604.7 252.3 L 608.5 251.1 L 612.3 249.9 L 616.1 248.8 L 619.9 247.6 L 623.7 246.4 L 627.5 245.3 L 631.3 244.1 L 635.1 243.0 L 638.9 241.9 L 642.7 240.8 L 646.5 239.7 L 650.3 238.7 L 654.1 237.6 L 657.9 236.6 L 661.7 235.5 L 665.5 234.5 L 669.3 233.6 L 673.1 232.6 L 676.9 231.7 L 680.7 230.7 L 684.5 229.8 L 688.3 228.9 L 692.1 228.1 L 695.9 227.2 L 699.7 226.3 L 703.5 225.4 L 707.3 224.6 L 711.1 223.7 L 714.9 222.9 L 718.8 222.0 L 722.6 221.1 L 726.4 220.3 L 730.2 219.4 L 734.0 218.5 L 737.8 217.7 L 741.6 216.9 L 745.4 216.1 L 749.2 215.3 L 753.0 214.6 L 756.8 213.8 L 760.6 213.1 L 764.4 212.4 L 768.2 211.7 L 772.0 210.9 L 775.8 210.2 L 779.6 209.5 L 783.4 208.7 L 787.2 207.9 L 791.0 207.1 L 794.8 206.3 L 798.6 205.5 L 802.4 204.6 L 806.2 203.8 L 810.0 202.9" fill="none" stroke="rgb(211, 47, 47)" stroke-width="1.8" stroke-dasharray="6,4" stroke-linecap="round" stroke-linejoin="round"/>
  <text class="curve-label" x="818.0" y="206.87819060350677" fill="rgb(211, 47, 47)">3th</text>
  <path d="M 80.0 510.1 L 83.8 507.6 L 87.6 505.2 L 91.4 502.7 L 95.2 500.2 L 99.0 497.8 L 102.8 495.3 L 106.6 492.9 L 110.4 490.4 L 114.2 488.0 L 118.0 485.5 L 121.8 483.1 L 125.6 480.7 L 129.4 478.3 L 133.2 475.9 L 137.0 473.6 L 140.8 471.2 L 144.6 468.9 L 148.4 466.6 L 152.2 464.3 L 156.0 462.0 L 159.8 459.7 L 163.6 457.5 L 167.4 455.2 L 171.3 452.9 L 175.1 450.7 L 178.9 448.4 L 182.7 446.1 L 186.5 443.7 L 190.3 441.4 L 194.1 439.0 L 197.9 436.6 L 201.7 434.3 L 205.5 431.9 L 209.3 429.5 L 213.1 427.2 L 216.9 424.8 L 220.7 422.5 L 224.5 420.1 L 228.3 417.8 L 232.1 415.4 L 235.9 413.0 L 239.7 410.6 L 243.5 408.1 L 247.3 405.6 L 251.1 403.1 L 254.9 400.7 L 258.7 398.3 L 262.5 396.0 L 266.3 393.7 L 270.1 391.6 L 273.9 389.5 L 277.7 387.4 L 281.5 385.4 L 285.3 383.4 L 289.1 381.4 L 292.9 379.3 L 296.7 377.2 L 300.5 375.1 L 304.3 372.9 L 308.1 370.8 L 311.9 368.6 L 315.7 366.4 L 319.5 364.1 L 323.3 361.9 L 327.1 359.7 L 330.9 357.4 L 334.7 355.2 L 338.5 353.0 L 342.3 350.7 L 346.1 348.5 L 349.9 346.3 L 353.8 344.1 L 357.6 341.9 L 361.4 339.8 L 365.2 337.6 L 369.0 335.4 L 372.8 333.2 L 376.6 331.0 L 380.4 328.9 L 384.2 326.7 L 388.0 324.6 L 391.8 322.4 L 395.6 320.4 L 399.4 318.3 L 403.2 316.3 L 407.0 314.4 L 410.8 312.5 L 414.6 310.6 L 418.4 308.8 L 422.2 307.0 L 426.0 305.3 L 429.8 303.6 L 433.6 301.9 L 437.4 300.3 L 441.2 298.6 L 445.0 297.1 L 448.8 295.5 L 452.6 293.9 L 456.4 292.4 L 460.2 290.8 L 464.0 289.3 L 467.8 287.8 L 471.6 286.3 L 475.4 284.8 L 479.2 283.3 L 483.0 281.8 L 486.8 280.4 L 490.6 278.9 L 494.4 277.5 L 498.2 276.1 L 502.0 274.7 L 505.8 273.3 L 509.6 271.9 L 513.4 270.5 L 517.2 269.2 L 521.0 267.8 L 524.8 266.5 L 528.6 265.1 L 532.4 263.8 L 536.3 262.5 L 540.1 261.2 L 543.9 259.9 L 547.7 258.6 L 551.5 257.3 L 555.3 256.1 L 559.1 254.8 L 562.9 253.5 L 566.7 252.3 L 570.5 251.1 L 574.3 249.9 L 578.1 248.6 L 581.9 247.4 L 585.7 246.2 L 589.5 245.0 L 593.3 243.9 L 597.1 242.7 L 600.9 241.5 L 604.7 240.4 L 608.5 239.2 L 612.3 238.1 L 616.1 236.9 L 619.9 235.8 L 623.7 234.7 L 627.5 233.6 L 631.3 232.5 L 635.1 231.4 L 638.9 230.3 L 642.7 229.2 L 646.5 228.2 L 650.3 227.2 L 654.1 226.1 L 657.9 225.1 L 661.7 224.1 L 665.5 223.1 L 669.3 222.2 L 673.1 221.2 L 676.9 220.3 L 680.7 219.4 L 684.5 218.5 L 688.3 217.6 L 692.1 216.7 L 695.9 215.8 L 699.7 214.9 L 703.5 214.1 L 707.3 213.2 L 711.1 212.3 L 714.9 211.5 L 718.8 210.6 L 722.6 209.7 L 726.4 208.9 L 730.2 208.0 L 734.0 207.1 L 737.8 206.3 L 741.6 205.5 L 745.4 204.7 L 749.2 203.9 L 753.0 203.2 L 756.8 202.4 L 760.6 201.7 L 764.4 201.0 L 768.2 200.3 L 772.0 199.5 L 775.8 198.8 L 779.6 198.1 L 783.4 197.3 L 787.2 196.5 L 791.0 195.7 L 794.8 194.9 L 798.6 194.1 L 802.4 193.2 L 806.2 192.4 L 810.0 191.5" fill="none" stroke="rgb(211, 47, 47)" stroke-width="1.8"  stroke-linecap="round" stroke-linejoin="round"/>
  <text class="curve-label" x="818.0" y="195.47702943891818" fill="rgb(211, 47, 47)">10th</text>
  <path d="M 80.0 483.2 L 83.8 480.6 L 87.6 478.1 L 91.4 475.5 L 95.2 473.0 L 99.0 470.4 L 102.8 467.9 L 106.6 465.4 L 110.4 462.8 L 114.2 460.3 L 118.0 457.8 L 121.8 455.3 L 125.6 452.8 L 129.4 450.4 L 133.2 447.9 L 137.0 445.4 L 140.8 443.0 L 144.6 440.5 L 148.4 438.1 L 152.2 435.6 L 156.0 433.2 L 159.8 430.8 L 163.6 428.4 L 167.4 426.1 L 171.3 423.7 L 175.1 421.3 L 178.9 418.9 L 182.7 416.5 L 186.5 414.0 L 190.3 411.6 L 194.1 409.1 L 197.9 406.6 L 201.7 404.1 L 205.5 401.5 L 209.3 399.0 L 213.1 396.6 L 216.9 394.1 L 220.7 391.7 L 224.5 389.2 L 228.3 386.8 L 232.1 384.4 L 235.9 381.9 L 239.7 379.5 L 243.5 377.0 L 247.3 374.6 L 251.1 372.2 L 254.9 369.8 L 258.7 367.4 L 262.5 365.1 L 266.3 362.9 L 270.1 360.7 L 273.9 358.5 L 277.7 356.4 L 281.5 354.2 L 285.3 352.1 L 289.1 350.0 L 292.9 347.8 L 296.7 345.6 L 300.5 343.4 L 304.3 341.1 L 308.1 338.9 L 311.9 336.6 L 315.7 334.3 L 319.5 332.1 L 323.3 329.8 L 327.1 327.6 L 330.9 325.4 L 334.7 323.2 L 338.5 321.0 L 342.3 318.8 L 346.1 316.6 L 349.9 314.5 L 353.8 312.3 L 357.6 310.2 L 361.4 308.1 L 365.2 306.0 L 369.0 303.9 L 372.8 301.8 L 376.6 299.7 L 380.4 297.6 L 384.2 295.6 L 388.0 293.6 L 391.8 291.6 L 395.6 289.6 L 399.4 287.7 L 403.2 285.8 L 407.0 283.9 L 410.8 282.1 L 414.6 280.3 L 418.4 278.6 L 422.2 276.9 L 426.0 275.3 L 429.8 273.6 L 433.6 272.1 L 437.4 270.5 L 441.2 269.0 L 445.0 267.5 L 448.8 266.1 L 452.6 264.6 L 456.4 263.2 L 460.2 261.7 L 464.0 260.3 L 467.8 258.9 L 471.6 257.5 L 475.4 256.1 L 479.2 254.7 L 483.0 253.3 L 486.8 252.0 L 490.6 250.6 L 494.4 249.3 L 498.2 248.0 L 502.0 246.6 L 505.8 245.3 L 509.6 244.0 L 513.4 242.8 L 517.2 241.5 L 521.0 240.2 L 524.8 239.0 L 528.6 237.7 L 532.4 236.5 L 536.3 235.3 L 540.1 234.1 L 543.9 232.9 L 547.7 231.7 L 551.5 230.5 L 555.3 229.3 L 559.1 228.2 L 562.9 227.0 L 566.7 225.8 L 570.5 224.7 L 574.3 223.6 L 578.1 222.4 L 581.9 221.3 L 585.7 220.2 L 589.5 219.1 L 593.3 218.0 L 597.1 216.9 L 600.9 215.9 L 604.7 214.8 L 608.5 213.7 L 612.3 212.7 L 616.1 211.6 L 619.9 210.6 L 623.7 209.6 L 627.5 208.5 L 631.3 207.5 L 635.1 206.5 L 638.9 205.5 L 642.7 204.5 L 646.5 203.5 L 650.3 202.6 L 654.1 201.6 L 657.9 200.6 L 661.7 199.7 L 665.5 198.7 L 669.3 197.8 L 673.1 196.9 L 676.9 196.0 L 680.7 195.1 L 684.5 194.2 L 688.3 193.3 L 692.1 192.4 L 695.9 191.5 L 699.7 190.6 L 703.5 189.7 L 707.3 188.8 L 711.1 188.0 L 714.9 187.1 L 718.8 186.2 L 722.6 185.3 L 726.4 184.5 L 730.2 183.6 L 734.0 182.7 L 737.8 181.9 L 741.6 181.1 L 745.4 180.3 L 749.2 179.5 L 753.0 178.8 L 756.8 178.1 L 760.6 177.3 L 764.4 176.6 L 768.2 175.9 L 772.0 175.2 L 775.8 174.4 L 779.6 173.7 L 783.4 172.9 L 787.2 172.1 L 791.0 171.4 L 794.8 170.5 L 798.6 169.7 L 802.4 168.9 L 806.2 168.0 L 810.0 167.1" fill="none" stroke="rgb(46, 125, 50)" stroke-width="3.0"  stroke-linecap="round" stroke-linejoin="round"/>
  <text class="curve-label" x="818.0" y="171.0942677155465" fill="rgb(46, 125, 50)">50th</text>
  <path d="M 80.0 456.2 L 83.8 453.6 L 87.6 450.9 L 91.4 448.3 L 95.2 445.7 L 99.0 443.1 L 102.8 440.5 L 106.6 437.9 L 110.4 435.3 L 114.2 432.7 L 118.0 430.1 L 121.8 427.5 L 125.6 425.0 L 129.4 422.4 L 133.2 419.8 L 137.0 417.2 L 140.8 414.7 L 144.6 412.1 L 148.4 409.5 L 152.2 407.0 L 156.0 404.4 L 159.8 401.9 L 163.6 399.4 L 167.4 396.9 L 171.3 394.4 L 175.1 392.0 L 178.9 389.4 L 182.7 386.9 L 186.5 384.3 L 190.3 381.7 L 194.1 379.1 L 197.9 376.5 L 201.7 373.8 L 205.5 371.2 L 209.3 368.6 L 213.1 366.0 L 216.9 363.4 L 220.7 360.8 L 224.5 358.3 L 228.3 355.8 L 232.1 353.3 L 235.9 350.8 L 239.7 348.4 L 243.5 346.0 L 247.3 343.6 L 251.1 341.2 L 254.9 338.9 L 258.7 336.6 L 262.5 334.3 L 266.3 332.0 L 270.1 329.8 L 273.9 327.5 L 277.7 325.3 L 281.5 323.1 L 285.3 320.8 L 289.1 318.6 L 292.9 316.3 L 296.7 314.0 L 300.5 311.6 L 304.3 309.3 L 308.1 306.9 L 311.9 304.6 L 315.7 302.3 L 319.5 300.0 L 323.3 297.7 L 327.1 295.5 L 330.9 293.3 L 334.7 291.2 L 338.5 289.0 L 342.3 286.9 L 346.1 284.8 L 349.9 282.6 L 353.8 280.6 L 357.6 278.5 L 361.4 276.4 L 365.2 274.4 L 369.0 272.3 L 372.8 270.3 L 376.6 268.4 L 380.4 266.4 L 384.2 264.5 L 388.0 262.6 L 391.8 260.7 L 395.6 258.8 L 399.4 257.0 L 403.2 255.2 L 407.0 253.4 L 410.8 251.7 L 414.6 250.0 L 418.4 248.4 L 422.2 246.8 L 426.0 245.2 L 429.8 243.7 L 433.6 242.2 L 437.4 240.8 L 441.2 239.4 L 445.0 238.0 L 448.8 236.7 L 452.6 235.3 L 456.4 234.0 L 460.2 232.6 L 464.0 231.3 L 467.8 230.0 L 471.6 228.7 L 475.4 227.4 L 479.2 226.1 L 483.0 224.8 L 486.8 223.5 L 490.6 222.3 L 494.4 221.1 L 498.2 219.8 L 502.0 218.6 L 505.8 217.4 L 509.6 216.2 L 513.4 215.0 L 517.2 213.8 L 521.0 212.7 L 524.8 211.5 L 528.6 210.4 L 532.4 209.2 L 536.3 208.1 L 540.1 207.0 L 543.9 205.9 L 547.7 204.8 L 551.5 203.7 L 555.3 202.6 L 559.1 201.5 L 562.9 200.4 L 566.7 199.4 L 570.5 198.3 L 574.3 197.3 L 578.1 196.3 L 581.9 195.2 L 585.7 194.2 L 589.5 193.2 L 593.3 192.2 L 597.1 191.2 L 600.9 190.2 L 604.7 189.2 L 608.5 188.3 L 612.3 187.3 L 616.1 186.3 L 619.9 185.4 L 623.7 184.4 L 627.5 183.5 L 631.3 182.6 L 635.1 181.6 L 638.9 180.7 L 642.7 179.8 L 646.5 178.9 L 650.3 178.0 L 654.1 177.1 L 657.9 176.2 L 661.7 175.3 L 665.5 174.4 L 669.3 173.4 L 673.1 172.5 L 676.9 171.6 L 680.7 170.7 L 684.5 169.8 L 688.3 168.9 L 692.1 168.0 L 695.9 167.1 L 699.7 166.3 L 703.5 165.4 L 707.3 164.5 L 711.1 163.6 L 714.9 162.7 L 718.8 161.8 L 722.6 160.9 L 726.4 160.1 L 730.2 159.2 L 734.0 158.4 L 737.8 157.5 L 741.6 156.7 L 745.4 155.9 L 749.2 155.2 L 753.0 154.4 L 756.8 153.7 L 760.6 153.0 L 764.4 152.2 L 768.2 151.5 L 772.0 150.8 L 775.8 150.0 L 779.6 149.3 L 783.4 148.5 L 787.2 147.8 L 791.0 147.0 L 794.8 146.2 L 798.6 145.3 L 802.4 144.5 L 806.2 143.6 L 810.0 142.7" fill="none" stroke="rgb(211, 47, 47)" stroke-width="1.8"  stroke-linecap="round" stroke-linejoin="round"/>
  <text class="curve-label" x="818.0" y="146.71150599217464" fill="rgb(211, 47, 47)">90th</text>
  <path d="M 80.0 443.6 L 83.8 440.9 L 87.6 438.3 L 91.4 435.6 L 95.2 432.9 L 99.0 430.3 L 102.8 427.6 L 106.6 425.0 L 110.4 422.4 L 114.2 419.8 L 118.0 417.2 L 121.8 414.6 L 125.6 411.9 L 129.4 409.3 L 133.2 406.7 L 137.0 404.1 L 140.8 401.4 L 144.6 398.8 L 148.4 396.2 L 152.2 393.6 L 156.0 391.0 L 159.8 388.4 L 163.6 385.8 L 167.4 383.3 L 171.3 380.8 L 175.1 378.2 L 178.9 375.7 L 182.7 373.1 L 186.5 370.5 L 190.3 367.8 L 194.1 365.1 L 197.9 362.4 L 201.7 359.7 L 205.5 357.0 L 209.3 354.3 L 213.1 351.6 L 216.9 349.0 L 220.7 346.4 L 224.5 343.8 L 228.3 341.3 L 232.1 338.8 L 235.9 336.3 L 239.7 333.9 L 243.5 331.5 L 247.3 329.1 L 251.1 326.7 L 254.9 324.4 L 258.7 322.1 L 262.5 319.8 L 266.3 317.6 L 270.1 315.3 L 273.9 313.1 L 277.7 310.8 L 281.5 308.5 L 285.3 306.2 L 289.1 303.9 L 292.9 301.6 L 296.7 299.2 L 300.5 296.8 L 304.3 294.4 L 308.1 292.0 L 311.9 289.6 L 315.7 287.3 L 319.5 285.0 L 323.3 282.7 L 327.1 280.5 L 330.9 278.3 L 334.7 276.2 L 338.5 274.1 L 342.3 271.9 L 346.1 269.9 L 349.9 267.8 L 353.8 265.7 L 357.6 263.6 L 361.4 261.6 L 365.2 259.6 L 369.0 257.6 L 372.8 255.6 L 376.6 253.7 L 380.4 251.8 L 384.2 249.9 L 388.0 248.1 L 391.8 246.3 L 395.6 244.4 L 399.4 242.7 L 403.2 240.9 L 407.0 239.2 L 410.8 237.5 L 414.6 235.8 L 418.4 234.2 L 422.2 232.7 L 426.0 231.2 L 429.8 229.7 L 433.6 228.3 L 437.4 226.9 L 441.2 225.5 L 445.0 224.2 L 448.8 222.9 L 452.6 221.6 L 456.4 220.3 L 460.2 219.0 L 464.0 217.7 L 467.8 216.5 L 471.6 215.2 L 475.4 214.0 L 479.2 212.7 L 483.0 211.5 L 486.8 210.3 L 490.6 209.1 L 494.4 207.9 L 498.2 206.7 L 502.0 205.5 L 505.8 204.3 L 509.6 203.2 L 513.4 202.0 L 517.2 200.9 L 521.0 199.8 L 524.8 198.7 L 528.6 197.6 L 532.4 196.5 L 536.3 195.4 L 540.1 194.3 L 543.9 193.2 L 547.7 192.2 L 551.5 191.1 L 555.3 190.1 L 559.1 189.1 L 562.9 188.0 L 566.7 187.0 L 570.5 186.0 L 574.3 185.0 L 578.1 184.0 L 581.9 183.0 L 585.7 182.1 L 589.5 181.1 L 593.3 180.1 L 597.1 179.2 L 600.9 178.2 L 604.7 177.3 L 608.5 176.4 L 612.3 175.4 L 616.1 174.5 L 619.9 173.6 L 623.7 172.7 L 627.5 171.8 L 631.3 170.9 L 635.1 170.0 L 638.9 169.1 L 642.7 168.2 L 646.5 167.4 L 650.3 166.5 L 654.1 165.6 L 657.9 164.7 L 661.7 163.8 L 665.5 162.9 L 669.3 162.1 L 673.1 161.2 L 676.9 160.3 L 680.7 159.4 L 684.5 158.5 L 688.3 157.6 L 692.1 156.7 L 695.9 155.8 L 699.7 154.9 L 703.5 154.0 L 707.3 153.1 L 711.1 152.2 L 714.9 151.3 L 718.8 150.4 L 722.6 149.5 L 726.4 148.6 L 730.2 147.8 L 734.0 147.0 L 737.8 146.1 L 741.6 145.3 L 745.4 144.5 L 749.2 143.8 L 753.0 143.0 L 756.8 142.3 L 760.6 141.6 L 764.4 140.8 L 768.2 140.1 L 772.0 139.4 L 775.8 138.6 L 779.6 137.9 L 783.4 137.1 L 787.2 136.4 L 791.0 135.6 L 794.8 134.8 L 798.6 133.9 L 802.4 133.1 L 806.2 132.2 L 810.0 131.3" fill="none" stroke="rgb(211, 47, 47)" stroke-width="1.8" stroke-dasharray="6,4" stroke-linecap="round" stroke-linejoin="round"/>
  <text class="curve-label" x="818.0" y="135.31034482758628" fill="rgb(211, 47, 47)">97th</text>
  <!-- Calculated Result Markers -->
  <g transform="translate(384.1666666666667, 303.6963644010298)">
    <circle r="12.0" fill="rgba(2, 136, 209, 1.00)" opacity="0.25"/>
    <circle r="8.0" fill="rgb(255, 255, 255)" stroke="rgb(2, 136, 209)" stroke-width="2.5"/>
    <circle r="3.0" fill="rgb(2, 136, 209)"/>
  </g>
  <!-- Header Callout Card -->
  <g transform="translate(590.0, 44.0)">
    <rect class="callout-box" width="220.0" height="46.0"/>
    <text class="callout-text-bold" x="10" y="18">Result: 31.0 cm</text>
    <text class="callout-text" x="10" y="34">Age/X: 238.0 wks PMA</text>
    <text class="callout-text-bold" x="210.0" y="18" text-anchor="end">-0.33 SD</text>
    <text class="callout-text" x="210.0" y="34" text-anchor="end">36.9th %ile</text>
  </g>
  <!-- Legend -->
  <g>
    <line x1="192.89999999999998" y1="626.0" x2="214.89999999999998" y2="626.0" stroke="rgb(46, 125, 50)" stroke-width="3.0"/>
    <text class="tick-label" x="221.89999999999998" y="630.0">50th (Median)</text>
    <line x1="332.5" y1="626.0" x2="354.5" y2="626.0" stroke="rgb(124, 179, 66)" stroke-width="2.0"/>
    <text class="tick-label" x="361.5" y="630.0">15th / 85th</text>
    <line x1="459.7" y1="626.0" x2="481.7" y2="626.0" stroke="rgb(211, 47, 47)" stroke-width="2.0" stroke-dasharray="4,3"/>
    <text class="tick-label" x="488.7" y="630.0">3rd / 97th</text>
    <circle cx="587.7" cy="626.0" r="5" fill="rgba(2, 136, 209, 1.00)" opacity="0.3"/>
    <circle cx="587.7" cy="626.0" r="3" fill="rgb(255, 255, 255)" stroke="rgb(2, 136, 209)" stroke-width="1.5"/>
    <circle cx="587.7" cy="626.0" r="1.5" fill="rgb(2, 136, 209)"/>
    <text class="tick-label" x="601.7" y="630.0">Calculated Result</text>
  </g>
</svg>
