<?xml version="1.0" encoding="UTF-8"?>
<svg xmlns="http://www.w3.org/2000/svg" viewBox="0 0 900.0 650.0" width="900.0" height="650.0">
  <style>
    .bg { fill: rgb(255, 255, 255); }
    .chart-bg { fill: rgb(250, 252, 255); }
    .title { font-family: system-ui, -apple-system, sans-serif; font-size: 20px; font-weight: 700; fill: rgb(13, 71, 161); }
    .subtitle { font-family: system-ui, -apple-system, sans-serif; font-size: 13px; font-weight: 500; fill: rgb(21, 101, 192); }
    .axis-title { font-family: system-ui, -apple-system, sans-serif; font-size: 13px; font-weight: 600; fill: rgb(55, 71, 79); }
    .tick-label { font-family: system-ui, -apple-system, sans-serif; font-size: 11px; fill: rgb(55, 71, 79); }
    .curve-label { font-family: system-ui, -apple-system, sans-serif; font-size: 11px; font-weight: 600; }
    .grid-line { stroke: rgb(225, 235, 245); stroke-width: 1; stroke-dasharray: 3,3; }
    .axis-line { stroke: rgb(144, 164, 174); stroke-width: 1.5; }
    .callout-box { fill: rgba(255, 255, 255, 1.00); stroke: rgb(2, 136, 209); stroke-width: 1.5; rx: 6; ry: 6; filter: drop-shadow(0px 2px 4px rgba(0,0,0,0.1)); }
    .callout-text-bold { font-family: system-ui, -apple-system, sans-serif; font-size: 12px; font-weight: 700; fill: rgb(33, 37, 41); }
    .callout-text { font-family: system-ui, -apple-system, sans-serif; font-size: 11px; font-weight: 500; fill: rgb(33, 37, 41); }
    .badge-bg { fill: rgb(227, 242, 253); rx: 12; ry: 12; }
    .badge-text { font-family: system-ui, -apple-system, sans-serif; font-size: 11px; font-weight: 700; fill: rgb(25, 118, 210); }
  </style>

  <rect class="bg" width="900.0" height="650.0"/>
  <!-- Header -->
  <g transform="translate(80.0, 35)">
    <text class="title" x="0" y="0">Fenton Length-for-Age — Boys</text>
    <text class="subtitle" x="0" y="22">Value: 44.0 cm at 238.0 wks PMA | Z-Score: -0.36 SD | Percentile: 36.1%</text>
  </g>
  <!-- Chart Grid Area -->
  <rect class="chart-bg" x="80.0" y="100.0" width="730.0" height="454.0"/>
  <line class="grid-line" x1="91.83783783783784" y1="100.0" x2="91.83783783783784" y2="554.0"/>
  <line class="grid-line" x1="202.32432432432432" y1="100.0" x2="202.32432432432432" y2="554.0"/>
  <line class="grid-line" x1="312.81081081081084" y1="100.0" x2="312.81081081081084" y2="554.0"/>
  <line class="grid-line" x1="423.2972972972973" y1="100.0" x2="423.2972972972973" y2="554.0"/>
  <line class="grid-line" x1="533.7837837837837" y1="100.0" x2="533.7837837837837" y2="554.0"/>
  <line class="grid-line" x1="644.2702702702703" y1="100.0" x2="644.2702702702703" y2="554.0"/>
  <line class="grid-line" x1="754.7567567567568" y1="100.0" x2="754.7567567567568" y2="554.0"/>
  <line class="grid-line" x1="80.0" y1="530.1327740054383" x2="810.0" y2="530.1327740054383"/>
  <line class="grid-line" x1="80.0" y1="477.46990633271434" x2="810.0" y2="477.46990633271434"/>
  <line class="grid-line" x1="80.0" y1="424.80703865999044" x2="810.0" y2="424.80703865999044"/>
  <line class="grid-line" x1="80.0" y1="372.14417098726653" x2="810.0" y2="372.14417098726653"/>
  <line class="grid-line" x1="80.0" y1="319.48130331454274" x2="810.0" y2="319.48130331454274"/>
  <line class="grid-line" x1="80.0" y1="266.81843564181884" x2="810.0" y2="266.81843564181884"/>
  <line class="grid-line" x1="80.0" y1="214.15556796909493" x2="810.0" y2="214.15556796909493"/>
  <line class="grid-line" x1="80.0" y1="161.49270029637103" x2="810.0" y2="161.49270029637103"/>
  <line class="grid-line" x1="80.0" y1="108.82983262364718" x2="810.0" y2="108.82983262364718"/>
  <rect class="axis-line" fill="none" x="80.0" y="100.0" width="730.0" height="454.0"/>
  <line class="axis-line" x1="91.83783783783784" y1="554.0" x2="91.83783783783784" y2="560.0"/>
  <text class="tick-label" x="91.83783783783784" y="574.0" text-anchor="middle">24w</text>
  <line class="axis-line" x1="202.32432432432432" y1="554.0" x2="202.32432432432432" y2="560.0"/>
  <text class="tick-label" x="202.32432432432432" y="574.0" text-anchor="middle">28w</text>
  <line class="axis-line" x1="312.81081081081084" y1="554.0" x2="312.81081081081084" y2="560.0"/>
  <text class="tick-label" x="312.81081081081084" y="574.0" text-anchor="middle">32w</text>
  <line class="axis-line" x1="423.2972972972973" y1="554.0" x2="423.2972972972973" y2="560.0"/>
  <text class="tick-label" x="423.2972972972973" y="574.0" text-anchor="middle">36w</text>
  <line class="axis-line" x1="533.7837837837837" y1="554.0" x2="533.7837837837837" y2="560.0"/>
  <text class="tick-label" x="533.7837837837837" y="574.0" text-anchor="middle">40w</text>
  <line class="axis-line" x1="644.2702702702703" y1="554.0" x2="644.2702702702703" y2="560.0"/>
  <text class="tick-label" x="644.2702702702703" y="574.0" text-anchor="middle">44w</text>
  <line class="axis-line" x1="754.7567567567568" y1="554.0" x2="754.7567567567568" y2="560.0"/>
  <text class="tick-label" x="754.7567567567568" y="574.0" text-anchor="middle">48w</text>
  <text class="axis-title" x="445.0" y="598.0" text-anchor="middle">Postmenstrual Age (weeks)</text>
  <line class="axis-line" x1="74.0" y1="530.1327740054383" x2="80.0" y2="530.1327740054383"/>
  <text class="tick-label" x="68.0" y="534.1327740054383" text-anchor="end">25</text>
  <line class="axis-line" x1="74.0" y1="477.46990633271434" x2="80.0" y2="477.46990633271434"/>
  <text class="tick-label" x="68.0" y="481.46990633271434" text-anchor="end">30</text>
  <line class="axis-line" x1="74.0" y1="424.80703865999044" x2="80.0" y2="424.80703865999044"/>
  <text class="tick-label" x="68.0" y="428.80703865999044" text-anchor="end">35</text>
  <line class="axis-line" x1="74.0" y1="372.14417098726653" x2="80.0" y2="372.14417098726653"/>
  <text class="tick-label" x="68.0" y="376.14417098726653" text-anchor="end">40</text>
  <line class="axis-line" x1="74.0" y1="319.48130331454274" x2="80.0" y2="319.48130331454274"/>
  <text class="tick-label" x="68.0" y="323.48130331454274" text-anchor="end">45</text>
  <line class="axis-line" x1="74.0" y1="266.81843564181884" x2="80.0" y2="266.81843564181884"/>
  <text class="tick-label" x="68.0" y="270.81843564181884" text-anchor="end">50</text>
  <line class="axis-line" x1="74.0" y1="214.15556796909493" x2="80.0" y2="214.15556796909493"/>
  <text class="tick-label" x="68.0" y="218.15556796909493" text-anchor="end">55</text>
  <line class="axis-line" x1="74.0" y1="161.49270029637103" x2="80.0" y2="161.49270029637103"/>
  <text class="tick-label" x="68.0" y="165.49270029637103" text-anchor="end">60</text>
  <line class="axis-line" x1="74.0" y1="108.82983262364718" x2="80.0" y2="108.82983262364718"/>
  <text class="tick-label" x="68.0" y="112.82983262364718" text-anchor="end">65</text>
  <text class="axis-title" x="0" y="0" transform="translate(25, 327.0) rotate(-90)" text-anchor="middle">Length / Height (cm)</text>
  <!-- Percentile / Z-Score Curves -->
  <path d="M 80.0 522.7 L 83.9 520.6 L 87.9 518.6 L 91.8 516.5 L 95.8 514.5 L 99.7 512.4 L 103.7 510.3 L 107.6 508.3 L 111.6 506.2 L 115.5 504.1 L 119.5 502.1 L 123.4 500.0 L 127.4 497.9 L 131.3 495.8 L 135.2 493.7 L 139.2 491.6 L 143.1 489.5 L 147.1 487.4 L 151.0 485.2 L 155.0 483.1 L 158.9 480.9 L 162.9 478.8 L 166.8 476.6 L 170.8 474.4 L 174.7 472.2 L 178.6 470.0 L 182.6 467.8 L 186.5 465.6 L 190.5 463.5 L 194.4 461.3 L 198.4 459.1 L 202.3 456.9 L 206.3 454.8 L 210.2 452.6 L 214.2 450.4 L 218.1 448.3 L 222.1 446.1 L 226.0 443.9 L 229.9 441.7 L 233.9 439.6 L 237.8 437.4 L 241.8 435.2 L 245.7 433.1 L 249.7 430.9 L 253.6 428.8 L 257.6 426.6 L 261.5 424.5 L 265.5 422.3 L 269.4 420.2 L 273.4 418.1 L 277.3 416.0 L 281.2 413.9 L 285.2 411.8 L 289.1 409.7 L 293.1 407.6 L 297.0 405.5 L 301.0 403.5 L 304.9 401.4 L 308.9 399.4 L 312.8 397.3 L 316.8 395.3 L 320.7 393.3 L 324.6 391.2 L 328.6 389.2 L 332.5 387.2 L 336.5 385.2 L 340.4 383.2 L 344.4 381.2 L 348.3 379.2 L 352.3 377.2 L 356.2 375.2 L 360.2 373.2 L 364.1 371.3 L 368.1 369.4 L 372.0 367.4 L 375.9 365.5 L 379.9 363.6 L 383.8 361.8 L 387.8 359.9 L 391.7 358.1 L 395.7 356.3 L 399.6 354.5 L 403.6 352.7 L 407.5 350.9 L 411.5 349.1 L 415.4 347.3 L 419.4 345.5 L 423.3 343.8 L 427.2 342.1 L 431.2 340.3 L 435.1 338.6 L 439.1 337.0 L 443.0 335.4 L 447.0 333.8 L 450.9 332.2 L 454.9 330.6 L 458.8 329.1 L 462.8 327.6 L 466.7 326.1 L 470.6 324.6 L 474.6 323.1 L 478.5 321.6 L 482.5 320.1 L 486.4 318.6 L 490.4 317.2 L 494.3 315.7 L 498.3 314.2 L 502.2 312.8 L 506.2 311.4 L 510.1 309.9 L 514.1 308.5 L 518.0 307.1 L 521.9 305.6 L 525.9 304.2 L 529.8 302.8 L 533.8 301.4 L 537.7 300.0 L 541.7 298.6 L 545.6 297.3 L 549.6 295.9 L 553.5 294.5 L 557.5 293.1 L 561.4 291.8 L 565.4 290.4 L 569.3 289.0 L 573.2 287.7 L 577.2 286.3 L 581.1 285.0 L 585.1 283.6 L 589.0 282.3 L 593.0 281.0 L 596.9 279.6 L 600.9 278.3 L 604.8 277.0 L 608.8 275.7 L 612.7 274.4 L 616.6 273.0 L 620.6 271.7 L 624.5 270.4 L 628.5 269.1 L 632.4 267.8 L 636.4 266.6 L 640.3 265.3 L 644.3 264.0 L 648.2 262.7 L 652.2 261.4 L 656.1 260.1 L 660.1 258.8 L 664.0 257.5 L 667.9 256.2 L 671.9 254.9 L 675.8 253.6 L 679.8 252.2 L 683.7 250.9 L 687.7 249.6 L 691.6 248.2 L 695.6 246.9 L 699.5 245.6 L 703.5 244.2 L 707.4 242.9 L 711.4 241.6 L 715.3 240.3 L 719.2 239.1 L 723.2 237.8 L 727.1 236.6 L 731.1 235.4 L 735.0 234.2 L 739.0 233.0 L 742.9 231.8 L 746.9 230.6 L 750.8 229.4 L 754.8 228.2 L 758.7 227.0 L 762.6 225.7 L 766.6 224.5 L 770.5 223.3 L 774.5 222.1 L 778.4 220.9 L 782.4 219.7 L 786.3 218.5 L 790.3 217.3 L 794.2 216.2 L 798.2 215.1 L 802.1 214.0 L 806.1 212.9 L 810.0 211.9" fill="none" stroke="rgb(211, 47, 47)" stroke-width="1.8" stroke-dasharray="6,4" stroke-linecap="round" stroke-linejoin="round"/>
  <text class="curve-label" x="818.0" y="215.85694672142864" fill="rgb(211, 47, 47)">3th</text>
  <path d="M 80.0 507.7 L 83.9 505.6 L 87.9 503.5 L 91.8 501.4 L 95.8 499.3 L 99.7 497.2 L 103.7 495.1 L 107.6 493.1 L 111.6 491.0 L 115.5 488.9 L 119.5 486.8 L 123.4 484.7 L 127.4 482.6 L 131.3 480.5 L 135.2 478.3 L 139.2 476.2 L 143.1 474.1 L 147.1 471.9 L 151.0 469.8 L 155.0 467.6 L 158.9 465.4 L 162.9 463.2 L 166.8 461.0 L 170.8 458.8 L 174.7 456.6 L 178.6 454.4 L 182.6 452.2 L 186.5 450.0 L 190.5 447.8 L 194.4 445.6 L 198.4 443.4 L 202.3 441.2 L 206.3 439.1 L 210.2 436.9 L 214.2 434.7 L 218.1 432.5 L 222.1 430.3 L 226.0 428.2 L 229.9 426.0 L 233.9 423.8 L 237.8 421.6 L 241.8 419.5 L 245.7 417.3 L 249.7 415.2 L 253.6 413.0 L 257.6 410.8 L 261.5 408.7 L 265.5 406.6 L 269.4 404.4 L 273.4 402.3 L 277.3 400.2 L 281.2 398.1 L 285.2 396.0 L 289.1 394.0 L 293.1 391.9 L 297.0 389.8 L 301.0 387.8 L 304.9 385.7 L 308.9 383.7 L 312.8 381.7 L 316.8 379.6 L 320.7 377.6 L 324.6 375.6 L 328.6 373.6 L 332.5 371.6 L 336.5 369.6 L 340.4 367.6 L 344.4 365.6 L 348.3 363.6 L 352.3 361.7 L 356.2 359.7 L 360.2 357.7 L 364.1 355.8 L 368.1 353.9 L 372.0 352.0 L 375.9 350.1 L 379.9 348.2 L 383.8 346.4 L 387.8 344.6 L 391.7 342.7 L 395.7 340.9 L 399.6 339.2 L 403.6 337.4 L 407.5 335.6 L 411.5 333.9 L 415.4 332.1 L 419.4 330.4 L 423.3 328.6 L 427.2 326.9 L 431.2 325.2 L 435.1 323.6 L 439.1 321.9 L 443.0 320.3 L 447.0 318.8 L 450.9 317.2 L 454.9 315.7 L 458.8 314.2 L 462.8 312.7 L 466.7 311.2 L 470.6 309.7 L 474.6 308.3 L 478.5 306.8 L 482.5 305.3 L 486.4 303.9 L 490.4 302.5 L 494.3 301.0 L 498.3 299.6 L 502.2 298.2 L 506.2 296.8 L 510.1 295.4 L 514.1 294.0 L 518.0 292.6 L 521.9 291.2 L 525.9 289.8 L 529.8 288.4 L 533.8 287.0 L 537.7 285.7 L 541.7 284.3 L 545.6 282.9 L 549.6 281.6 L 553.5 280.2 L 557.5 278.9 L 561.4 277.5 L 565.4 276.2 L 569.3 274.9 L 573.2 273.5 L 577.2 272.2 L 581.1 270.9 L 585.1 269.6 L 589.0 268.3 L 593.0 267.0 L 596.9 265.6 L 600.9 264.3 L 604.8 263.0 L 608.8 261.7 L 612.7 260.5 L 616.6 259.2 L 620.6 257.9 L 624.5 256.6 L 628.5 255.3 L 632.4 254.1 L 636.4 252.8 L 640.3 251.5 L 644.3 250.3 L 648.2 249.0 L 652.2 247.7 L 656.1 246.5 L 660.1 245.2 L 664.0 243.9 L 667.9 242.6 L 671.9 241.3 L 675.8 240.0 L 679.8 238.7 L 683.7 237.4 L 687.7 236.1 L 691.6 234.7 L 695.6 233.4 L 699.5 232.1 L 703.5 230.8 L 707.4 229.5 L 711.4 228.2 L 715.3 227.0 L 719.2 225.7 L 723.2 224.5 L 727.1 223.3 L 731.1 222.1 L 735.0 220.9 L 739.0 219.8 L 742.9 218.6 L 746.9 217.4 L 750.8 216.2 L 754.8 215.0 L 758.7 213.8 L 762.6 212.6 L 766.6 211.4 L 770.5 210.3 L 774.5 209.1 L 778.4 207.9 L 782.4 206.7 L 786.3 205.5 L 790.3 204.4 L 794.2 203.3 L 798.2 202.2 L 802.1 201.1 L 806.1 200.1 L 810.0 199.0" fill="none" stroke="rgb(211, 47, 47)" stroke-width="1.8"  stroke-linecap="round" stroke-linejoin="round"/>
  <text class="curve-label" x="818.0" y="203.02541910598353" fill="rgb(211, 47, 47)">10th</text>
  <path d="M 80.0 475.6 L 83.9 473.5 L 87.9 471.3 L 91.8 469.1 L 95.8 467.0 L 99.7 464.8 L 103.7 462.7 L 107.6 460.5 L 111.6 458.4 L 115.5 456.2 L 119.5 454.1 L 123.4 451.9 L 127.4 449.8 L 131.3 447.6 L 135.2 445.4 L 139.2 443.3 L 143.1 441.1 L 147.1 438.9 L 151.0 436.7 L 155.0 434.5 L 158.9 432.2 L 162.9 430.0 L 166.8 427.8 L 170.8 425.5 L 174.7 423.3 L 178.6 421.0 L 182.6 418.8 L 186.5 416.6 L 190.5 414.3 L 194.4 412.1 L 198.4 409.9 L 202.3 407.7 L 206.3 405.5 L 210.2 403.3 L 214.2 401.1 L 218.1 398.9 L 222.1 396.7 L 226.0 394.5 L 229.9 392.3 L 233.9 390.1 L 237.8 387.9 L 241.8 385.8 L 245.7 383.6 L 249.7 381.4 L 253.6 379.3 L 257.6 377.1 L 261.5 375.0 L 265.5 372.9 L 269.4 370.7 L 273.4 368.6 L 277.3 366.5 L 281.2 364.4 L 285.2 362.4 L 289.1 360.3 L 293.1 358.2 L 297.0 356.2 L 301.0 354.2 L 304.9 352.1 L 308.9 350.1 L 312.8 348.1 L 316.8 346.1 L 320.7 344.1 L 324.6 342.2 L 328.6 340.2 L 332.5 338.2 L 336.5 336.2 L 340.4 334.3 L 344.4 332.3 L 348.3 330.4 L 352.3 328.4 L 356.2 326.5 L 360.2 324.6 L 364.1 322.7 L 368.1 320.8 L 372.0 318.9 L 375.9 317.1 L 379.9 315.3 L 383.8 313.5 L 387.8 311.7 L 391.7 309.9 L 395.7 308.2 L 399.6 306.5 L 403.6 304.7 L 407.5 303.0 L 411.5 301.3 L 415.4 299.6 L 419.4 297.9 L 423.3 296.2 L 427.2 294.6 L 431.2 292.9 L 435.1 291.3 L 439.1 289.7 L 443.0 288.2 L 447.0 286.7 L 450.9 285.2 L 454.9 283.7 L 458.8 282.3 L 462.8 280.8 L 466.7 279.4 L 470.6 278.0 L 474.6 276.6 L 478.5 275.2 L 482.5 273.8 L 486.4 272.4 L 490.4 271.0 L 494.3 269.7 L 498.3 268.3 L 502.2 266.9 L 506.2 265.6 L 510.1 264.2 L 514.1 262.9 L 518.0 261.6 L 521.9 260.2 L 525.9 258.9 L 529.8 257.6 L 533.8 256.3 L 537.7 254.9 L 541.7 253.6 L 545.6 252.3 L 549.6 251.0 L 553.5 249.7 L 557.5 248.4 L 561.4 247.1 L 565.4 245.9 L 569.3 244.6 L 573.2 243.3 L 577.2 242.0 L 581.1 240.8 L 585.1 239.5 L 589.0 238.2 L 593.0 237.0 L 596.9 235.7 L 600.9 234.5 L 604.8 233.2 L 608.8 232.0 L 612.7 230.7 L 616.6 229.5 L 620.6 228.2 L 624.5 227.0 L 628.5 225.8 L 632.4 224.6 L 636.4 223.3 L 640.3 222.1 L 644.3 220.9 L 648.2 219.7 L 652.2 218.5 L 656.1 217.2 L 660.1 216.0 L 664.0 214.8 L 667.9 213.5 L 671.9 212.3 L 675.8 211.0 L 679.8 209.7 L 683.7 208.5 L 687.7 207.2 L 691.6 205.9 L 695.6 204.6 L 699.5 203.4 L 703.5 202.1 L 707.4 200.8 L 711.4 199.6 L 715.3 198.4 L 719.2 197.2 L 723.2 196.0 L 727.1 194.9 L 731.1 193.7 L 735.0 192.6 L 739.0 191.5 L 742.9 190.3 L 746.9 189.2 L 750.8 188.0 L 754.8 186.9 L 758.7 185.8 L 762.6 184.6 L 766.6 183.5 L 770.5 182.3 L 774.5 181.2 L 778.4 180.0 L 782.4 178.9 L 786.3 177.8 L 790.3 176.7 L 794.2 175.6 L 798.2 174.6 L 802.1 173.6 L 806.1 172.6 L 810.0 171.6" fill="none" stroke="rgb(46, 125, 50)" stroke-width="3.0"  stroke-linecap="round" stroke-linejoin="round"/>
  <text class="curve-label" x="818.0" y="175.58364577450737" fill="rgb(46, 125, 50)">50th</text>
  <path d="M 80.0 443.5 L 83.9 441.3 L 87.9 439.1 L 91.8 436.8 L 95.8 434.6 L 99.7 432.4 L 103.7 430.2 L 107.6 428.0 L 111.6 425.8 L 115.5 423.6 L 119.5 421.4 L 123.4 419.2 L 127.4 417.0 L 131.3 414.7 L 135.2 412.5 L 139.2 410.3 L 143.1 408.1 L 147.1 405.8 L 151.0 403.6 L 155.0 401.3 L 158.9 399.1 L 162.9 396.8 L 166.8 394.5 L 170.8 392.2 L 174.7 389.9 L 178.6 387.7 L 182.6 385.4 L 186.5 383.1 L 190.5 380.8 L 194.4 378.6 L 198.4 376.4 L 202.3 374.1 L 206.3 371.9 L 210.2 369.7 L 214.2 367.5 L 218.1 365.3 L 222.1 363.0 L 226.0 360.8 L 229.9 358.6 L 233.9 356.4 L 237.8 354.3 L 241.8 352.1 L 245.7 349.9 L 249.7 347.7 L 253.6 345.6 L 257.6 343.4 L 261.5 341.3 L 265.5 339.2 L 269.4 337.0 L 273.4 334.9 L 277.3 332.8 L 281.2 330.8 L 285.2 328.7 L 289.1 326.7 L 293.1 324.6 L 297.0 322.6 L 301.0 320.6 L 304.9 318.6 L 308.9 316.6 L 312.8 314.6 L 316.8 312.6 L 320.7 310.7 L 324.6 308.7 L 328.6 306.8 L 332.5 304.8 L 336.5 302.9 L 340.4 300.9 L 344.4 299.0 L 348.3 297.1 L 352.3 295.2 L 356.2 293.3 L 360.2 291.4 L 364.1 289.6 L 368.1 287.7 L 372.0 285.9 L 375.9 284.1 L 379.9 282.3 L 383.8 280.6 L 387.8 278.8 L 391.7 277.1 L 395.7 275.4 L 399.6 273.7 L 403.6 272.1 L 407.5 270.4 L 411.5 268.7 L 415.4 267.1 L 419.4 265.4 L 423.3 263.8 L 427.2 262.2 L 431.2 260.6 L 435.1 259.1 L 439.1 257.5 L 443.0 256.1 L 447.0 254.6 L 450.9 253.2 L 454.9 251.8 L 458.8 250.4 L 462.8 249.0 L 466.7 247.6 L 470.6 246.3 L 474.6 244.9 L 478.5 243.6 L 482.5 242.3 L 486.4 240.9 L 490.4 239.6 L 494.3 238.3 L 498.3 237.0 L 502.2 235.7 L 506.2 234.4 L 510.1 233.1 L 514.1 231.8 L 518.0 230.6 L 521.9 229.3 L 525.9 228.0 L 529.8 226.7 L 533.8 225.5 L 537.7 224.2 L 541.7 223.0 L 545.6 221.7 L 549.6 220.5 L 553.5 219.2 L 557.5 218.0 L 561.4 216.7 L 565.4 215.5 L 569.3 214.3 L 573.2 213.1 L 577.2 211.8 L 581.1 210.6 L 585.1 209.4 L 589.0 208.2 L 593.0 207.0 L 596.9 205.8 L 600.9 204.6 L 604.8 203.4 L 608.8 202.2 L 612.7 201.0 L 616.6 199.8 L 620.6 198.6 L 624.5 197.4 L 628.5 196.2 L 632.4 195.1 L 636.4 193.9 L 640.3 192.7 L 644.3 191.6 L 648.2 190.4 L 652.2 189.2 L 656.1 188.0 L 660.1 186.8 L 664.0 185.6 L 667.9 184.4 L 671.9 183.2 L 675.8 182.0 L 679.8 180.8 L 683.7 179.6 L 687.7 178.3 L 691.6 177.1 L 695.6 175.9 L 699.5 174.6 L 703.5 173.4 L 707.4 172.2 L 711.4 171.0 L 715.3 169.8 L 719.2 168.7 L 723.2 167.5 L 727.1 166.4 L 731.1 165.3 L 735.0 164.2 L 739.0 163.1 L 742.9 162.1 L 746.9 161.0 L 750.8 159.9 L 754.8 158.8 L 758.7 157.7 L 762.6 156.6 L 766.6 155.5 L 770.5 154.4 L 774.5 153.3 L 778.4 152.2 L 782.4 151.1 L 786.3 150.0 L 790.3 149.0 L 794.2 148.0 L 798.2 147.0 L 802.1 146.0 L 806.1 145.1 L 810.0 144.1" fill="none" stroke="rgb(211, 47, 47)" stroke-width="1.8"  stroke-linecap="round" stroke-linejoin="round"/>
  <text class="curve-label" x="818.0" y="148.14187244303127" fill="rgb(211, 47, 47)">90th</text>
  <path d="M 80.0 428.5 L 83.9 426.3 L 87.9 424.0 L 91.8 421.8 L 95.8 419.5 L 99.7 417.2 L 103.7 415.0 L 107.6 412.8 L 111.6 410.5 L 115.5 408.3 L 119.5 406.1 L 123.4 403.8 L 127.4 401.6 L 131.3 399.4 L 135.2 397.1 L 139.2 394.9 L 143.1 392.6 L 147.1 390.4 L 151.0 388.1 L 155.0 385.8 L 158.9 383.6 L 162.9 381.3 L 166.8 379.0 L 170.8 376.7 L 174.7 374.3 L 178.6 372.0 L 182.6 369.8 L 186.5 367.5 L 190.5 365.2 L 194.4 362.9 L 198.4 360.7 L 202.3 358.4 L 206.3 356.2 L 210.2 354.0 L 214.2 351.7 L 218.1 349.5 L 222.1 347.3 L 226.0 345.1 L 229.9 342.9 L 233.9 340.7 L 237.8 338.5 L 241.8 336.3 L 245.7 334.1 L 249.7 332.0 L 253.6 329.8 L 257.6 327.7 L 261.5 325.5 L 265.5 323.4 L 269.4 321.3 L 273.4 319.2 L 277.3 317.1 L 281.2 315.0 L 285.2 313.0 L 289.1 310.9 L 293.1 308.9 L 297.0 306.9 L 301.0 304.9 L 304.9 302.9 L 308.9 300.9 L 312.8 298.9 L 316.8 297.0 L 320.7 295.0 L 324.6 293.1 L 328.6 291.1 L 332.5 289.2 L 336.5 287.3 L 340.4 285.4 L 344.4 283.4 L 348.3 281.5 L 352.3 279.7 L 356.2 277.8 L 360.2 275.9 L 364.1 274.1 L 368.1 272.3 L 372.0 270.5 L 375.9 268.7 L 379.9 266.9 L 383.8 265.2 L 387.8 263.5 L 391.7 261.8 L 395.7 260.1 L 399.6 258.4 L 403.6 256.8 L 407.5 255.1 L 411.5 253.5 L 415.4 251.9 L 419.4 250.3 L 423.3 248.7 L 427.2 247.1 L 431.2 245.5 L 435.1 244.0 L 439.1 242.5 L 443.0 241.0 L 447.0 239.6 L 450.9 238.2 L 454.9 236.8 L 458.8 235.5 L 462.8 234.1 L 466.7 232.8 L 470.6 231.5 L 474.6 230.1 L 478.5 228.8 L 482.5 227.5 L 486.4 226.2 L 490.4 224.9 L 494.3 223.7 L 498.3 222.4 L 502.2 221.1 L 506.2 219.8 L 510.1 218.6 L 514.1 217.3 L 518.0 216.1 L 521.9 214.8 L 525.9 213.6 L 529.8 212.3 L 533.8 211.1 L 537.7 209.8 L 541.7 208.6 L 545.6 207.4 L 549.6 206.2 L 553.5 205.0 L 557.5 203.7 L 561.4 202.5 L 565.4 201.3 L 569.3 200.1 L 573.2 198.9 L 577.2 197.7 L 581.1 196.5 L 585.1 195.3 L 589.0 194.2 L 593.0 193.0 L 596.9 191.8 L 600.9 190.6 L 604.8 189.4 L 608.8 188.3 L 612.7 187.1 L 616.6 185.9 L 620.6 184.8 L 624.5 183.6 L 628.5 182.4 L 632.4 181.3 L 636.4 180.1 L 640.3 179.0 L 644.3 177.8 L 648.2 176.7 L 652.2 175.5 L 656.1 174.4 L 660.1 173.2 L 664.0 172.0 L 667.9 170.9 L 671.9 169.7 L 675.8 168.5 L 679.8 167.3 L 683.7 166.0 L 687.7 164.8 L 691.6 163.6 L 695.6 162.4 L 699.5 161.2 L 703.5 160.0 L 707.4 158.8 L 711.4 157.6 L 715.3 156.5 L 719.2 155.3 L 723.2 154.2 L 727.1 153.1 L 731.1 152.1 L 735.0 151.0 L 739.0 149.9 L 742.9 148.8 L 746.9 147.8 L 750.8 146.7 L 754.8 145.6 L 758.7 144.5 L 762.6 143.5 L 766.6 142.4 L 770.5 141.3 L 774.5 140.2 L 778.4 139.2 L 782.4 138.1 L 786.3 137.0 L 790.3 136.0 L 794.2 135.0 L 798.2 134.1 L 802.1 133.1 L 806.1 132.2 L 810.0 131.3" fill="none" stroke="rgb(211, 47, 47)" stroke-width="1.8" stroke-dasharray="6,4" stroke-linecap="round" stroke-linejoin="round"/>
  <text class="curve-label" x="818.0" y="135.31034482758622" fill="rgb(211, 47, 47)">97th</text>
  <!-- Calculated Result Markers -->
  <g transform="translate(368.05405405405406, 330.0138768490875)">
    <circle r="12.0" fill="rgba(2, 136, 209, 1.00)" opacity="0.25"/>
    <circle r="8.0" fill="rgb(255, 255, 255)" stroke="rgb(2, 136, 209)" stroke-width="2.5"/>
    <circle r="3.0" fill="rgb(2, 136, 209)"/>
  </g>
  <!-- Header Callout Card -->
  <g transform="translate(590.0, 44.0)">
    <rect class="callout-box" width="220.0" height="46.0"/>
    <text class="callout-text-bold" x="10" y="18">Result: 44.0 cm</text>
    <text class="callout-text" x="10" y="34">Age/X: 238.0 wks PMA</text>
    <text class="callout-text-bold" x="210.0" y="18" text-anchor="end">-0.36 SD</text>
    <text class="callout-text" x="210.0" y="34" text-anchor="end">36.1th %ile</text>
  </g>
  <!-- Legend -->
  <g>
    <line x1="192.89999999999998" y1="626.0" x2="214.89999999999998" y2="626.0" stroke="rgb(46, 125, 50)" stroke-width="3.0"/>
    <text class="tick-label" x="221.89999999999998" y="630.0">50th (Median)</text>
    <line x1="332.5" y1="626.0" x2="354.5" y2="626.0" stroke="rgb(124, 179, 66)" stroke-width="2.0"/>
    <text class="tick-label" x="361.5" y="630.0">15th / 85th</text>
    <line x1="459.7" y1="626.0" x2="481.7" y2="626.0" stroke="rgb(211, 47, 47)" stroke-width="2.0" stroke-dasharray="4,3"/>
    <text class="tick-label" x="488.7" y="630.0">3rd / 97th</text>
    <circle cx="587.7" cy="626.0" r="5" fill="rgba(2, 136, 209, 1.00)" opacity="0.3"/>
    <circle cx="587.7" cy="626.0" r="3" fill="rgb(255, 255, 255)" stroke="rgb(2, 136, 209)" stroke-width="1.5"/>
    <circle cx="587.7" cy="626.0" r="1.5" fill="rgb(2, 136, 209)"/>
    <text class="tick-label" x="601.7" y="630.0">Calculated Result</text>
  </g>
</svg>
